<svg width="201" height="418" xmlns="http://www.w3.org/2000/svg" xmlns:xlink="http://www.w3.org/1999/xlink" overflow="hidden"><defs><clipPath id="clip0"><path d="M2697 3161 2898 3161 2898 3579 2697 3579Z" fill-rule="evenodd" clip-rule="evenodd"/></clipPath></defs><g clip-path="url(#clip0)" transform="translate(-2697 -3161)"><path d="M2698.5 3171.67C2698.5 3166.6 2702.6 3162.5 2707.67 3162.5L2888.33 3162.5C2893.4 3162.5 2897.5 3166.6 2897.5 3171.67L2897.5 3208.33C2897.5 3213.4 2893.4 3217.5 2888.33 3217.5L2707.67 3217.5C2702.6 3217.5 2698.5 3213.4 2698.5 3208.33Z" stroke="#4472C4" stroke-width="1.33333" stroke-miterlimit="8" fill="#FFFFFF" fill-rule="evenodd"/><text font-family="Calibri,Calibri_MSFontService,sans-serif" font-weight="400" font-size="24" transform="translate(2742.94 3197)">File System</text><path d="M2698.5 3285.67C2698.5 3279.5 2703.5 3274.5 2709.67 3274.5L2886.33 3274.5C2892.5 3274.5 2897.5 3279.5 2897.5 3285.67L2897.5 3330.33C2897.5 3336.5 2892.5 3341.5 2886.33 3341.5L2709.67 3341.5C2703.5 3341.5 2698.5 3336.5 2698.5 3330.33Z" stroke="#4472C4" stroke-width="1.33333" stroke-miterlimit="8" fill="#FFFFFF" fill-rule="evenodd"/><text font-family="Calibri,Calibri_MSFontService,sans-serif" font-weight="400" font-size="24" transform="translate(2746.6 3300)">MMC card<tspan x="-16.9534" y="29">(Block device)</tspan></text><path d="M2698.5 3408.83C2698.5 3402.57 2703.57 3397.5 2709.83 3397.5L2886.17 3397.5C2892.43 3397.5 2897.5 3402.57 2897.5 3408.83L2897.5 3454.17C2897.5 3460.43 2892.43 3465.5 2886.17 3465.5L2709.83 3465.5C2703.57 3465.5 2698.5 3460.43 2698.5 3454.17Z" stroke="#4472C4" stroke-width="1.33333" stroke-miterlimit="8" fill="#FFFFFF" fill-rule="evenodd"/><text font-family="Calibri,Calibri_MSFontService,sans-serif" font-weight="400" font-size="24" transform="translate(2746.34 3424)">MMC <tspan x="59.3333" y="0">core</tspan><tspan x="-26.9268" y="29">(MMC protocol)</tspan></text><path d="M2698.5 3531.67C2698.5 3526.6 2702.6 3522.5 2707.67 3522.5L2888.33 3522.5C2893.4 3522.5 2897.5 3526.6 2897.5 3531.67L2897.5 3568.33C2897.5 3573.4 2893.4 3577.5 2888.33 3577.5L2707.67 3577.5C2702.6 3577.5 2698.5 3573.4 2698.5 3568.33Z" stroke="#4472C4" stroke-width="1.33333" stroke-miterlimit="8" fill="#FFFFFF" fill-rule="evenodd"/><text font-family="Calibri,Calibri_MSFontService,sans-serif" font-weight="400" font-size="24" transform="translate(2746.47 3557)">MMC <tspan x="59.3335" y="0">hos</tspan><tspan x="93.7334" y="0">t</tspan></text><path d="M2798 3222.33 2798 3267.94 2796 3267.94 2796 3222.33ZM2797 3222.33 2793 3225 2797 3217 2801 3225ZM2797 3267.94 2801 3265.27 2797 3273.27 2793 3265.27Z" fill="#4472C4"/><path d="M2798 3346.33 2798 3392.2 2796 3392.2 2796 3346.33ZM2797 3346.33 2793 3349 2797 3341 2801 3349ZM2797 3392.2 2801 3389.53 2797 3397.53 2793 3389.53Z" fill="#4472C4"/><path d="M2798 3470.33 2798 3517 2796 3517 2796 3470.33ZM2797 3470.33 2793 3473 2797 3465 2801 3473ZM2797 3517 2801 3514.33 2797 3522.33 2793 3514.33Z" fill="#4472C4"/></g></svg>