<svg width="2524" height="1110" xmlns="http://www.w3.org/2000/svg" xmlns:xlink="http://www.w3.org/1999/xlink" overflow="hidden"><defs><clipPath id="clip0"><rect x="77" y="2176" width="2524" height="1110"/></clipPath></defs><g clip-path="url(#clip0)" transform="translate(-77 -2176)"><rect x="532" y="2295" width="400" height="81" stroke="#000000" stroke-width="4" stroke-miterlimit="8" fill="#DAE3F3"/><text font-family="Courier New,Courier New_MSFontService,sans-serif" font-weight="700" font-size="32" transform="translate(578.836 2344)">struct poll_list</text><rect x="532" y="2377" width="400" height="87" stroke="#000000" stroke-width="2" stroke-miterlimit="8" fill="#FFFFFF"/><text font-family="Courier New,Courier New_MSFontService,sans-serif" font-weight="700" font-size="32" transform="translate(684.252 2429)">*next</text><rect x="532" y="2464" width="400" height="87" stroke="#000000" stroke-width="2" stroke-miterlimit="8" fill="#FFFFFF"/><text font-family="Courier New,Courier New_MSFontService,sans-serif" font-weight="700" font-size="32" transform="translate(703.419 2516)">len</text><rect x="532" y="2552" width="400" height="157" stroke="#000000" stroke-width="2" stroke-miterlimit="8" fill="#FFFFFF"/><text font-family="Courier New,Courier New_MSFontService,sans-serif" font-weight="700" font-size="32" transform="translate(607.586 2620)">struct pollfd<tspan x="47.92" y="39">entry[0]</tspan></text><path d="M14.9998-2.49999 181.341-2.49989 181.341 2.5001 14.9998 2.50001ZM15 8.6842e-06 25 7.50001 0 0 25-7.49999Z" transform="matrix(-1 0 0 1 1113.84 2420.5)"/><text font-family="Courier New,Courier New_MSFontService,sans-serif" font-weight="700" font-size="32" transform="translate(97.3285 2215)">struct <tspan x="134.167" y="0">poll_list</tspan><tspan x="325.833" y="0">*head</tspan><tspan x="0" y="39">struct </tspan><tspan x="134.167" y="39">poll_list</tspan><tspan x="325.833" y="39">*walk</tspan></text><rect x="532" y="2709" width="400" height="158" stroke="#000000" stroke-width="2" stroke-miterlimit="8" fill="#FFFFFF"/><text font-family="Courier New,Courier New_MSFontService,sans-serif" font-weight="700" font-size="32" transform="translate(607.586 2778)">struct pollfd<tspan x="47.92" y="39">entry[1]</tspan></text><rect x="532" y="2867" width="400" height="88" stroke="#000000" stroke-width="2" stroke-miterlimit="8" fill="#FFFFFF"/><text font-family="Courier New,Courier New_MSFontService,sans-serif" font-weight="700" font-size="32" transform="translate(684.252 2920)">. . .</text><rect x="532" y="2955" width="400" height="157" stroke="#000000" stroke-width="2" stroke-miterlimit="8" fill="#FFFFFF"/><text font-family="Courier New,Courier New_MSFontService,sans-serif" font-weight="700" font-size="32" transform="translate(607.586 3023)">struct pollfd<tspan x="28.7534" y="39">entry[n</tspan><tspan x="162.92" y="39">-</tspan><tspan x="182.087" y="39">1]</tspan></text><path d="M511.5 3112.5C492.999 3112.5 478 3109.79 478 3106.44L478 2750.56C478 2747.21 463.002 2744.5 444.5 2744.5 463.002 2744.5 478 2741.79 478 2738.44L478 2382.56C478 2379.21 492.999 2376.5 511.5 2376.5" stroke="#4472C4" stroke-width="3" stroke-miterlimit="8" fill="none" fill-rule="evenodd"/><text font-family="Courier New,Courier New_MSFontService,sans-serif" font-weight="700" font-size="32" transform="translate(119.55 2733)">POLL_STACK_ALLOC <tspan x="0" y="39">(256 bytes)</tspan></text><rect x="1114" y="2380" width="400" height="80" stroke="#000000" stroke-width="4" stroke-miterlimit="8" fill="#DAE3F3"/><text font-family="Courier New,Courier New_MSFontService,sans-serif" font-weight="700" font-size="32" transform="translate(1160.43 2429)">struct <tspan x="134.167" y="0">poll_list</tspan></text><rect x="1114" y="2460" width="400" height="88" stroke="#000000" stroke-width="2" stroke-miterlimit="8" fill="#FFFFFF"/><text font-family="Courier New,Courier New_MSFontService,sans-serif" font-weight="700" font-size="32" transform="translate(1265.85 2513)">*next</text><rect x="1114" y="2548" width="400" height="87" stroke="#000000" stroke-width="2" stroke-miterlimit="8" fill="#FFFFFF"/><text font-family="Courier New,Courier New_MSFontService,sans-serif" font-weight="700" font-size="32" transform="translate(1285.02 2600)">len</text><rect x="1114" y="2636" width="400" height="157" stroke="#000000" stroke-width="2" stroke-miterlimit="8" fill="#FFFFFF"/><text font-family="Courier New,Courier New_MSFontService,sans-serif" font-weight="700" font-size="32" transform="translate(1189.18 2704)">struct <tspan x="134.167" y="0">pollfd</tspan><tspan x="47.92" y="39">entry[0]</tspan></text><rect x="1114" y="2793" width="400" height="158" stroke="#000000" stroke-width="2" stroke-miterlimit="8" fill="#FFFFFF"/><text font-family="Courier New,Courier New_MSFontService,sans-serif" font-weight="700" font-size="32" transform="translate(1189.18 2861)">struct <tspan x="134.167" y="0">pollfd</tspan><tspan x="47.92" y="39">entry[1]</tspan></text><rect x="1114" y="2951" width="400" height="88" stroke="#000000" stroke-width="2" stroke-miterlimit="8" fill="#FFFFFF"/><text font-family="Courier New,Courier New_MSFontService,sans-serif" font-weight="700" font-size="32" transform="translate(1265.85 3003)">. . .</text><rect x="1114" y="3127" width="400" height="157" stroke="#000000" stroke-width="2" stroke-miterlimit="8" fill="#FFFFFF"/><text font-family="Courier New,Courier New_MSFontService,sans-serif" font-weight="700" font-size="32" transform="translate(1189.18 3195)">struct <tspan x="134.167" y="0">pollfd</tspan><tspan x="28.7533" y="39">entry[m</tspan><tspan x="162.92" y="39">-</tspan><tspan x="182.087" y="39">1]</tspan></text><rect x="1114" y="3039" width="400" height="88" stroke="#000000" stroke-width="2" stroke-miterlimit="8" fill="#FFFFFF"/><text font-family="Courier New,Courier New_MSFontService,sans-serif" font-weight="700" font-size="32" transform="translate(1265.85 3092)">. . .</text><path d="M517.347 2331.77 403.512 2282.8 405.488 2278.2 519.323 2327.17ZM518.335 2329.47 512.113 2318.63 532.114 2335.4 506.185 2332.41Z"/><path d="M14.9998-2.49999 181.341-2.49989 181.341 2.5001 14.9998 2.50001ZM15 8.6842e-06 25 7.50001 0 0 25-7.49999Z" transform="matrix(-1 0 0 1 1695.84 2504.5)"/><rect x="1695" y="2460" width="400" height="81" stroke="#000000" stroke-width="4" stroke-miterlimit="8" fill="#DAE3F3"/><text font-family="Courier New,Courier New_MSFontService,sans-serif" font-weight="700" font-size="32" transform="translate(1742.03 2510)">struct <tspan x="134.167" y="0">poll_list</tspan></text><rect x="1695" y="2541" width="400" height="87" stroke="#000000" stroke-width="2" stroke-miterlimit="8" fill="#FFFFFF"/><text font-family="Courier New,Courier New_MSFontService,sans-serif" font-weight="700" font-size="32" transform="translate(1847.45 2594)">*next</text><rect x="1695" y="2628" width="400" height="87" stroke="#000000" stroke-width="2" stroke-miterlimit="8" fill="#FFFFFF"/><text font-family="Courier New,Courier New_MSFontService,sans-serif" font-weight="700" font-size="32" transform="translate(1866.62 2681)">len</text><rect x="1695" y="2716" width="400" height="158" stroke="#000000" stroke-width="2" stroke-miterlimit="8" fill="#FFFFFF"/><text font-family="Courier New,Courier New_MSFontService,sans-serif" font-weight="700" font-size="32" transform="translate(1770.78 2785)">struct <tspan x="134.167" y="0">pollfd</tspan><tspan x="47.92" y="39">entry[0]</tspan></text><rect x="1695" y="2874" width="400" height="157" stroke="#000000" stroke-width="2" stroke-miterlimit="8" fill="#FFFFFF"/><text font-family="Courier New,Courier New_MSFontService,sans-serif" font-weight="700" font-size="32" transform="translate(1770.78 2942)">struct <tspan x="134.167" y="0">pollfd</tspan><tspan x="47.92" y="39">entry[1]</tspan></text><rect x="1695" y="3031" width="400" height="88" stroke="#000000" stroke-width="2" stroke-miterlimit="8" fill="#FFFFFF"/><text font-family="Courier New,Courier New_MSFontService,sans-serif" font-weight="700" font-size="32" transform="translate(1847.45 3084)">. . .</text><rect x="1695" y="3119" width="400" height="89" stroke="#000000" stroke-width="2" stroke-miterlimit="8" fill="#FFFFFF"/><text font-family="Courier New,Courier New_MSFontService,sans-serif" font-weight="700" font-size="32" transform="translate(1847.45 3172)">. . .</text><path d="M2135.5 2541.5C2148.2 2541.5 2158.5 2543.36 2158.5 2545.66L2158.5 2870.84C2158.5 2873.14 2168.8 2875 2181.5 2875 2168.8 2875 2158.5 2876.86 2158.5 2879.16L2158.5 3204.34C2158.5 3206.64 2148.2 3208.5 2135.5 3208.5" stroke="#4472C4" stroke-width="3" stroke-miterlimit="8" fill="none" fill-rule="evenodd"/><text font-family="Courier New,Courier New_MSFontService,sans-serif" font-weight="700" font-size="32" transform="translate(2217.2 2882)">Max size: PAGE_SIZE</text></g></svg>