<svg width="758" height="717" xmlns="http://www.w3.org/2000/svg" xmlns:xlink="http://www.w3.org/1999/xlink" overflow="hidden"><defs><clipPath id="clip0"><path d="M1808 1824 2566 1824 2566 2541 1808 2541Z" fill-rule="evenodd" clip-rule="evenodd"/></clipPath></defs><g clip-path="url(#clip0)" transform="translate(-1808 -1824)"><rect x="1810" y="1827" width="753" height="712" stroke="#000000" stroke-width="4" stroke-miterlimit="8" stroke-dasharray="16 12" fill="#FFFFFF"/><path d="M2059 2135C2059 2099.65 2089 2071 2126 2071 2163 2071 2193 2099.65 2193 2135 2193 2170.35 2163 2199 2126 2199 2089 2199 2059 2170.35 2059 2135Z" stroke="#4472C4" stroke-width="4" stroke-miterlimit="8" fill="#FFFFFF" fill-rule="evenodd"/><text font-family="Calibri,Calibri_MSFontService,sans-serif" font-weight="400" font-size="19" transform="translate(2090.47 2130)">127.0.0.1<tspan x="16.5" y="23">6379</tspan></text><path d="M2274 2081.5C2274 2045.88 2304 2017 2341 2017 2378 2017 2408 2045.88 2408 2081.5 2408 2117.12 2378 2146 2341 2146 2304 2146 2274 2117.12 2274 2081.5Z" stroke="#4472C4" stroke-width="4" stroke-miterlimit="8" fill="#FFFFFF" fill-rule="evenodd"/><text font-family="Calibri,Calibri_MSFontService,sans-serif" font-weight="400" font-size="19" transform="translate(2305.14 2076)">127.0.0.1<tspan x="16.5" y="23">6380</tspan></text><path d="M2232 2263.5C2232 2227.88 2262 2199 2299 2199 2336 2199 2366 2227.88 2366 2263.5 2366 2299.12 2336 2328 2299 2328 2262 2328 2232 2299.12 2232 2263.5Z" stroke="#4472C4" stroke-width="4" stroke-miterlimit="8" fill="#FFFFFF" fill-rule="evenodd"/><text font-family="Calibri,Calibri_MSFontService,sans-serif" font-weight="400" font-size="19" transform="translate(2263.14 2258)">127.0.0.1<tspan x="16.5" y="23">6381</tspan></text><path d="M1837 2135C1837 2099.65 1867.22 2071 1904.5 2071 1941.78 2071 1972 2099.65 1972 2135 1972 2170.35 1941.78 2199 1904.5 2199 1867.22 2199 1837 2170.35 1837 2135Z" stroke="#4472C4" stroke-width="4" stroke-miterlimit="8" stroke-dasharray="12 4" fill="#FFFFFF" fill-rule="evenodd"/><text font-family="Calibri,Calibri_MSFontService,sans-serif" font-weight="400" font-size="19" transform="translate(1869.02 2130)">127.0.0.1<tspan x="16.5" y="23">6479</tspan></text><path d="M2400 1917C2400 1881.65 2430 1853 2467 1853 2504 1853 2534 1881.65 2534 1917 2534 1952.35 2504 1981 2467 1981 2430 1981 2400 1952.35 2400 1917Z" stroke="#4472C4" stroke-width="4" stroke-miterlimit="8" stroke-dasharray="12 4" fill="#FFFFFF" fill-rule="evenodd"/><text font-family="Calibri,Calibri_MSFontService,sans-serif" font-weight="400" font-size="19" transform="translate(2431.61 1911)">127.0.0.1<tspan x="16.5" y="23">6480</tspan></text><path d="M2305 2451C2305 2415.65 2335 2387 2372 2387 2409 2387 2439 2415.65 2439 2451 2439 2486.35 2409 2515 2372 2515 2335 2515 2305 2486.35 2305 2451Z" stroke="#4472C4" stroke-width="4" stroke-miterlimit="8" stroke-dasharray="12 4" fill="#FFFFFF" fill-rule="evenodd"/><text font-family="Calibri,Calibri_MSFontService,sans-serif" font-weight="400" font-size="19" transform="translate(2336.14 2445)">127.0.0.1<tspan x="16.5" y="23">6481</tspan></text><path d="M1972.5 2133.17 2050.39 2133.17 2050.39 2137.83 1972.5 2137.83ZM2050.39 2135.5 2045.73 2128.5 2059.73 2135.5 2045.73 2142.5Z"/><path d="M2342.34 2392.2 2318.83 2334.03 2323.16 2332.28 2346.66 2390.45ZM2321 2333.15 2316.25 2340.1 2317.5 2324.5 2329.24 2334.86Z"/><path d="M1.93935-1.29745 39.0829 54.2226 35.2042 56.8175-1.93935 1.29745ZM37.1435 55.5201 40.3667 47.749 42.3333 63.2775 28.7306 55.5337Z" transform="matrix(-1 -8.74228e-08 -8.74228e-08 1 2429.83 1968.5)"/><text font-family="Calibri,Calibri_MSFontService,sans-serif" font-weight="700" font-size="19" transform="translate(2090.68 2234)">Master <tspan x="59.2332" y="0">1</tspan><tspan x="341.142" y="-148">Master 2</tspan><tspan x="297.173" y="38">Master 3</tspan><tspan font-size="21" x="-243.669" y="-357">Cluster</tspan></text></g></svg>