<svg width="1069" height="836" xmlns="http://www.w3.org/2000/svg" xmlns:xlink="http://www.w3.org/1999/xlink" overflow="hidden"><defs><clipPath id="clip0"><path d="M1110 2878 2179 2878 2179 3714 1110 3714Z" fill-rule="evenodd" clip-rule="evenodd"/></clipPath></defs><g clip-path="url(#clip0)" transform="translate(-1110 -2878)"><rect x="1112" y="2880" width="400" height="104" stroke="#000000" stroke-width="2" stroke-miterlimit="8" fill="#FFFFFF"/><path d="M1343.74 2936.82 1344.22 2936.82C1344.71 2936.82 1345.13 2937 1345.48 2937.34 1345.83 2937.69 1346.01 2938.11 1346.01 2938.6 1346.01 2939.11 1345.83 2939.54 1345.48 2939.88 1345.12 2940.22 1344.7 2940.4 1344.22 2940.4L1343.74 2940.4C1343.25 2940.4 1342.83 2940.22 1342.48 2939.88 1342.12 2939.53 1341.95 2939.11 1341.95 2938.62 1341.95 2938.11 1342.13 2937.68 1342.48 2937.34 1342.84 2936.99 1343.26 2936.82 1343.74 2936.82ZM1311.74 2936.82 1312.22 2936.82C1312.71 2936.82 1313.13 2937 1313.48 2937.34 1313.83 2937.69 1314.01 2938.11 1314.01 2938.6 1314.01 2939.11 1313.83 2939.54 1313.48 2939.88 1313.12 2940.22 1312.7 2940.4 1312.22 2940.4L1311.74 2940.4C1311.25 2940.4 1310.83 2940.22 1310.48 2939.88 1310.12 2939.53 1309.95 2939.11 1309.95 2938.62 1309.95 2938.11 1310.13 2937.68 1310.48 2937.34 1310.84 2936.99 1311.26 2936.82 1311.74 2936.82ZM1279.74 2936.82 1280.22 2936.82C1280.71 2936.82 1281.13 2937 1281.48 2937.34 1281.83 2937.69 1282.01 2938.11 1282.01 2938.6 1282.01 2939.11 1281.83 2939.54 1281.48 2939.88 1281.12 2940.22 1280.7 2940.4 1280.22 2940.4L1279.74 2940.4C1279.25 2940.4 1278.83 2940.22 1278.48 2939.88 1278.12 2939.53 1277.95 2939.11 1277.95 2938.62 1277.95 2938.11 1278.13 2937.68 1278.48 2937.34 1278.84 2936.99 1279.26 2936.82 1279.74 2936.82Z" stroke="#000000" stroke-width="2" stroke-linejoin="round" stroke-miterlimit="10" fill-rule="evenodd"/><text fill="#000000" fill-opacity="0" font-family="Arial,Arial_MSFontService,sans-serif" font-size="3.57275" x="1277.95" y="2939.95">. . .</text><rect x="1112" y="2984" width="400" height="104" stroke="#000000" stroke-width="2" stroke-miterlimit="8" fill="#FFFFFF"/><path d="M1309.76 3032.19C1310.34 3032.19 1310.84 3032.34 1311.27 3032.64 1311.7 3032.95 1312.06 3033.41 1312.35 3034.02 1312.84 3033.41 1313.34 3032.95 1313.84 3032.64 1314.35 3032.34 1314.86 3032.19 1315.37 3032.19 1316.17 3032.19 1316.8 3032.45 1317.28 3032.97 1317.9 3033.63 1318.21 3034.36 1318.21 3035.15L1318.21 3042.89 1319.15 3042.89C1319.41 3042.89 1319.6 3042.94 1319.72 3043.05 1319.83 3043.15 1319.89 3043.28 1319.89 3043.45 1319.89 3043.61 1319.83 3043.74 1319.72 3043.84 1319.6 3043.95 1319.41 3044 1319.15 3044L1317.11 3044 1317.11 3035.26C1317.11 3034.7 1316.94 3034.23 1316.59 3033.86 1316.25 3033.49 1315.85 3033.31 1315.41 3033.31 1315 3033.31 1314.58 3033.46 1314.13 3033.76 1313.68 3034.07 1313.17 3034.66 1312.6 3035.55L1312.6 3042.89 1313.52 3042.89C1313.79 3042.89 1313.97 3042.94 1314.09 3043.05 1314.2 3043.15 1314.26 3043.28 1314.26 3043.45 1314.26 3043.61 1314.2 3043.74 1314.09 3043.84 1313.97 3043.95 1313.79 3044 1313.52 3044L1311.48 3044 1311.48 3035.34C1311.48 3034.75 1311.3 3034.26 1310.96 3033.88 1310.61 3033.5 1310.22 3033.31 1309.79 3033.31 1309.39 3033.31 1309 3033.44 1308.62 3033.69 1308.08 3034.05 1307.52 3034.67 1306.93 3035.55L1306.93 3042.89 1307.87 3042.89C1308.13 3042.89 1308.32 3042.94 1308.43 3043.05 1308.55 3043.15 1308.6 3043.28 1308.6 3043.45 1308.6 3043.61 1308.55 3043.74 1308.43 3043.84 1308.32 3043.95 1308.13 3044 1307.87 3044L1304.89 3044C1304.62 3044 1304.43 3043.95 1304.32 3043.84 1304.2 3043.74 1304.15 3043.61 1304.15 3043.45 1304.15 3043.28 1304.2 3043.15 1304.32 3043.05 1304.43 3042.94 1304.62 3042.89 1304.89 3042.89L1305.82 3042.89 1305.82 3033.7 1304.89 3033.7C1304.62 3033.7 1304.43 3033.65 1304.32 3033.55 1304.2 3033.44 1304.15 3033.3 1304.15 3033.14 1304.15 3032.98 1304.2 3032.85 1304.32 3032.74 1304.43 3032.64 1304.62 3032.58 1304.89 3032.58L1306.93 3032.58 1306.93 3033.7C1307.87 3032.69 1308.81 3032.19 1309.76 3032.19ZM1325.13 3028.58C1325.3 3028.58 1325.43 3028.63 1325.54 3028.75 1325.65 3028.86 1325.7 3029.05 1325.7 3029.31L1325.7 3032.58 1331.71 3032.58C1331.97 3032.58 1332.16 3032.64 1332.28 3032.74 1332.39 3032.85 1332.45 3032.98 1332.45 3033.15 1332.45 3033.31 1332.39 3033.44 1332.28 3033.55 1332.16 3033.65 1331.97 3033.7 1331.71 3033.7L1325.7 3033.7 1325.7 3041.07C1325.7 3041.72 1325.96 3042.25 1326.47 3042.68 1326.98 3043.11 1327.74 3043.33 1328.73 3043.33 1329.48 3043.33 1330.29 3043.22 1331.16 3042.99 1332.03 3042.77 1332.7 3042.52 1333.19 3042.23 1333.36 3042.12 1333.51 3042.06 1333.62 3042.06 1333.76 3042.06 1333.89 3042.12 1333.99 3042.23 1334.1 3042.34 1334.15 3042.47 1334.15 3042.62 1334.15 3042.75 1334.09 3042.87 1333.98 3042.99 1333.7 3043.28 1333.01 3043.59 1331.93 3043.93 1330.84 3044.27 1329.8 3044.44 1328.81 3044.44 1327.52 3044.44 1326.49 3044.13 1325.72 3043.53 1324.96 3042.92 1324.58 3042.1 1324.58 3041.07L1324.58 3033.7 1322.53 3033.7C1322.27 3033.7 1322.08 3033.65 1321.97 3033.55 1321.85 3033.44 1321.8 3033.3 1321.8 3033.14 1321.8 3032.98 1321.85 3032.85 1321.97 3032.74 1322.08 3032.64 1322.27 3032.58 1322.53 3032.58L1324.58 3032.58 1324.58 3029.31C1324.58 3029.05 1324.63 3028.86 1324.74 3028.75 1324.84 3028.63 1324.97 3028.58 1325.13 3028.58ZM1298.26 3027.46C1299.31 3027.46 1300.42 3027.55 1301.61 3027.75 1302.06 3027.82 1302.33 3027.9 1302.42 3028 1302.51 3028.09 1302.56 3028.22 1302.56 3028.38 1302.56 3028.54 1302.5 3028.67 1302.4 3028.77 1302.29 3028.87 1302.15 3028.92 1301.98 3028.92 1301.91 3028.92 1301.79 3028.91 1301.62 3028.88 1300.29 3028.68 1299.17 3028.58 1298.26 3028.58 1297.29 3028.58 1296.55 3028.81 1296.03 3029.29 1295.5 3029.76 1295.24 3030.3 1295.24 3030.91L1295.24 3032.58 1300.42 3032.58C1300.69 3032.58 1300.87 3032.64 1300.99 3032.74 1301.1 3032.85 1301.16 3032.98 1301.16 3033.15 1301.16 3033.31 1301.1 3033.44 1300.99 3033.55 1300.87 3033.65 1300.69 3033.7 1300.42 3033.7L1295.24 3033.7 1295.24 3042.89 1300.11 3042.89C1300.37 3042.89 1300.56 3042.94 1300.67 3043.05 1300.79 3043.15 1300.84 3043.28 1300.84 3043.45 1300.84 3043.61 1300.79 3043.74 1300.67 3043.84 1300.56 3043.95 1300.37 3044 1300.11 3044L1291.44 3044C1291.18 3044 1290.99 3043.95 1290.88 3043.84 1290.76 3043.74 1290.71 3043.61 1290.71 3043.45 1290.71 3043.28 1290.76 3043.15 1290.88 3043.05 1290.99 3042.94 1291.18 3042.89 1291.44 3042.89L1294.12 3042.89 1294.12 3033.7 1291.72 3033.7C1291.46 3033.7 1291.27 3033.65 1291.15 3033.55 1291.04 3033.44 1290.98 3033.3 1290.98 3033.14 1290.98 3032.98 1291.04 3032.85 1291.15 3032.74 1291.27 3032.64 1291.46 3032.58 1291.72 3032.58L1294.12 3032.58 1294.12 3030.91C1294.12 3029.98 1294.5 3029.17 1295.25 3028.48 1296.01 3027.8 1297.01 3027.46 1298.26 3027.46Z" stroke="#000000" stroke-width="2" stroke-linejoin="round" stroke-miterlimit="10" fill-rule="evenodd"/><text fill="#000000" fill-opacity="0" font-family="Arial,Arial_MSFontService,sans-serif" font-size="16.9805" x="1290.71" y="3042.31">fmt</text><rect x="1112" y="3088" width="400" height="104" stroke="#000000" stroke-width="2" stroke-miterlimit="8" fill="#FFFFFF"/><path d="M1327.77 3137.31C1326.48 3137.31 1325.36 3137.69 1324.43 3138.44 1323.5 3139.2 1322.92 3140.2 1322.69 3141.44L1332.84 3141.44C1332.62 3140.21 1332.05 3139.22 1331.11 3138.46 1330.17 3137.69 1329.06 3137.31 1327.77 3137.31ZM1295.77 3137.31C1294.48 3137.31 1293.36 3137.69 1292.43 3138.44 1291.5 3139.2 1290.92 3140.2 1290.69 3141.44L1300.84 3141.44C1300.62 3140.21 1300.05 3139.22 1299.11 3138.46 1298.17 3137.69 1297.06 3137.31 1295.77 3137.31ZM1305.39 3136.58 1309.54 3136.58C1309.8 3136.58 1309.99 3136.64 1310.11 3136.74 1310.22 3136.85 1310.28 3136.98 1310.28 3137.15 1310.28 3137.31 1310.22 3137.44 1310.11 3137.55 1309.99 3137.65 1309.8 3137.71 1309.54 3137.71L1307.71 3137.71 1311.77 3146.89 1312.26 3146.89 1316.24 3137.71 1314.39 3137.71C1314.13 3137.71 1313.94 3137.65 1313.82 3137.55 1313.71 3137.44 1313.65 3137.31 1313.65 3137.14 1313.65 3136.98 1313.71 3136.85 1313.82 3136.74 1313.94 3136.64 1314.13 3136.58 1314.39 3136.58L1318.56 3136.58C1318.83 3136.58 1319.02 3136.64 1319.13 3136.74 1319.24 3136.85 1319.3 3136.98 1319.3 3137.15 1319.3 3137.31 1319.24 3137.44 1319.13 3137.55 1319.02 3137.65 1318.83 3137.71 1318.56 3137.71L1317.44 3137.71 1312.94 3148 1311.07 3148 1306.52 3137.71 1305.39 3137.71C1305.12 3137.71 1304.93 3137.65 1304.82 3137.55 1304.71 3137.44 1304.65 3137.31 1304.65 3137.14 1304.65 3136.98 1304.71 3136.85 1304.82 3136.74 1304.93 3136.64 1305.12 3136.58 1305.39 3136.58ZM1327.77 3136.19C1329.58 3136.19 1331.07 3136.78 1332.24 3137.96 1333.41 3139.14 1333.98 3140.68 1333.96 3142.56L1322.68 3142.56C1322.87 3143.99 1323.47 3145.14 1324.48 3146.02 1325.48 3146.89 1326.73 3147.33 1328.22 3147.33 1329.04 3147.33 1329.91 3147.19 1330.81 3146.92 1331.72 3146.65 1332.46 3146.29 1333.03 3145.84 1333.2 3145.71 1333.34 3145.64 1333.46 3145.64 1333.6 3145.64 1333.73 3145.7 1333.83 3145.81 1333.94 3145.92 1333.99 3146.05 1333.99 3146.2 1333.99 3146.34 1333.92 3146.49 1333.78 3146.63 1333.36 3147.07 1332.61 3147.48 1331.53 3147.86 1330.46 3148.25 1329.35 3148.44 1328.22 3148.44 1326.32 3148.44 1324.73 3147.81 1323.46 3146.57 1322.19 3145.33 1321.56 3143.82 1321.56 3142.06 1321.56 3140.45 1322.15 3139.07 1323.34 3137.92 1324.54 3136.76 1326.01 3136.19 1327.77 3136.19ZM1295.77 3136.19C1297.58 3136.19 1299.07 3136.78 1300.24 3137.96 1301.41 3139.14 1301.98 3140.68 1301.96 3142.56L1290.68 3142.56C1290.87 3143.99 1291.47 3145.14 1292.48 3146.02 1293.48 3146.89 1294.73 3147.33 1296.22 3147.33 1297.04 3147.33 1297.91 3147.19 1298.81 3146.92 1299.72 3146.65 1300.46 3146.29 1301.03 3145.84 1301.2 3145.71 1301.34 3145.64 1301.46 3145.64 1301.6 3145.64 1301.73 3145.7 1301.83 3145.81 1301.94 3145.92 1301.99 3146.05 1301.99 3146.2 1301.99 3146.34 1301.92 3146.49 1301.78 3146.63 1301.36 3147.07 1300.61 3147.48 1299.53 3147.86 1298.46 3148.25 1297.35 3148.44 1296.22 3148.44 1294.32 3148.44 1292.73 3147.81 1291.46 3146.57 1290.19 3145.33 1289.56 3143.82 1289.56 3142.06 1289.56 3140.45 1290.15 3139.07 1291.34 3137.92 1292.54 3136.76 1294.01 3136.19 1295.77 3136.19ZM1340.23 3131.46 1344.53 3131.46 1344.53 3146.89 1348.88 3146.89C1349.16 3146.89 1349.35 3146.94 1349.46 3147.05 1349.58 3147.15 1349.63 3147.28 1349.63 3147.45 1349.63 3147.61 1349.58 3147.74 1349.46 3147.84 1349.35 3147.95 1349.16 3148 1348.88 3148L1339.07 3148C1338.81 3148 1338.62 3147.95 1338.51 3147.84 1338.39 3147.74 1338.34 3147.61 1338.34 3147.45 1338.34 3147.28 1338.39 3147.15 1338.51 3147.05 1338.62 3146.94 1338.81 3146.89 1339.07 3146.89L1343.43 3146.89 1343.43 3132.58 1340.23 3132.58C1339.97 3132.58 1339.78 3132.52 1339.66 3132.42 1339.54 3132.31 1339.48 3132.18 1339.48 3132.01 1339.48 3131.85 1339.54 3131.72 1339.65 3131.61 1339.77 3131.51 1339.96 3131.46 1340.23 3131.46ZM1276.23 3131.46 1280.53 3131.46 1280.53 3146.89 1284.88 3146.89C1285.16 3146.89 1285.35 3146.94 1285.46 3147.05 1285.58 3147.15 1285.63 3147.28 1285.63 3147.45 1285.63 3147.61 1285.58 3147.74 1285.46 3147.84 1285.35 3147.95 1285.16 3148 1284.88 3148L1275.07 3148C1274.81 3148 1274.62 3147.95 1274.51 3147.84 1274.39 3147.74 1274.34 3147.61 1274.34 3147.45 1274.34 3147.28 1274.39 3147.15 1274.51 3147.05 1274.62 3146.94 1274.81 3146.89 1275.07 3146.89L1279.43 3146.89 1279.43 3132.58 1276.23 3132.58C1275.97 3132.58 1275.78 3132.52 1275.66 3132.42 1275.54 3132.31 1275.48 3132.18 1275.48 3132.01 1275.48 3131.85 1275.54 3131.72 1275.65 3131.61 1275.77 3131.51 1275.96 3131.46 1276.23 3131.46Z" stroke="#000000" stroke-width="2" stroke-linejoin="round" stroke-miterlimit="10" fill-rule="evenodd"/><text fill="#000000" fill-opacity="0" font-family="Arial,Arial_MSFontService,sans-serif" font-size="16.9805" x="1274.34" y="3146.31">level</text><rect x="1112" y="3192" width="400" height="104" stroke="#000000" stroke-width="2" stroke-miterlimit="8" fill="#FFFFFF"/><path d="M1344.61 3258.29 1359.34 3258.29C1359.61 3258.29 1359.8 3258.34 1359.91 3258.44 1360.02 3258.54 1360.07 3258.68 1360.07 3258.84 1360.07 3259.01 1360.02 3259.15 1359.91 3259.25 1359.8 3259.35 1359.61 3259.4 1359.34 3259.4L1344.61 3259.4C1344.35 3259.4 1344.16 3259.35 1344.04 3259.25 1343.93 3259.15 1343.87 3259.01 1343.87 3258.84 1343.87 3258.68 1343.93 3258.54 1344.04 3258.44 1344.16 3258.34 1344.35 3258.29 1344.61 3258.29ZM1280.61 3258.29 1295.34 3258.29C1295.61 3258.29 1295.8 3258.34 1295.91 3258.44 1296.02 3258.54 1296.07 3258.68 1296.07 3258.84 1296.07 3259.01 1296.02 3259.15 1295.91 3259.25 1295.8 3259.35 1295.61 3259.4 1295.34 3259.4L1280.61 3259.4C1280.35 3259.4 1280.16 3259.35 1280.04 3259.25 1279.93 3259.15 1279.87 3259.01 1279.87 3258.84 1279.87 3258.68 1279.93 3258.54 1280.04 3258.44 1280.16 3258.34 1280.35 3258.29 1280.61 3258.29ZM1207.16 3241.31C1205.92 3241.31 1204.86 3241.76 1203.97 3242.66 1203.08 3243.56 1202.64 3244.66 1202.64 3245.95 1202.64 3247.25 1203.08 3248.35 1203.97 3249.25 1204.86 3250.15 1205.92 3250.6 1207.16 3250.6 1208.4 3250.6 1209.47 3250.15 1210.36 3249.25 1211.25 3248.35 1211.7 3247.25 1211.7 3245.95 1211.7 3244.65 1211.25 3243.55 1210.36 3242.65 1209.47 3241.76 1208.4 3241.31 1207.16 3241.31ZM1207.11 3240.19C1208.98 3240.19 1210.51 3241 1211.7 3242.62L1211.7 3240.58 1214.29 3240.58C1214.56 3240.58 1214.75 3240.64 1214.86 3240.74 1214.97 3240.85 1215.03 3240.98 1215.03 3241.15 1215.03 3241.31 1214.97 3241.44 1214.86 3241.55 1214.75 3241.65 1214.56 3241.71 1214.29 3241.71L1212.8 3241.71 1212.8 3252.77C1212.8 3253.5 1212.65 3254.16 1212.33 3254.74 1212.12 3255.13 1211.77 3255.53 1211.27 3255.94 1210.78 3256.36 1210.33 3256.65 1209.93 3256.83 1209.53 3257 1208.99 3257.09 1208.31 3257.09L1205.17 3257.09C1204.91 3257.09 1204.72 3257.04 1204.6 3256.94 1204.49 3256.84 1204.43 3256.7 1204.43 3256.54 1204.43 3256.37 1204.49 3256.23 1204.6 3256.13 1204.72 3256.02 1204.91 3255.97 1205.17 3255.97L1208.35 3255.98C1209 3255.98 1209.59 3255.82 1210.11 3255.48 1210.63 3255.15 1211.06 3254.66 1211.41 3254.02 1211.6 3253.65 1211.7 3253.18 1211.7 3252.61L1211.7 3249.29C1210.51 3250.91 1208.98 3251.73 1207.11 3251.73 1205.59 3251.73 1204.28 3251.16 1203.17 3250.03 1202.07 3248.9 1201.52 3247.54 1201.52 3245.95 1201.52 3244.36 1202.07 3243 1203.17 3241.88 1204.28 3240.75 1205.59 3240.19 1207.11 3240.19ZM1191.9 3240.19C1193.43 3240.19 1194.67 3240.56 1195.63 3241.31 1195.63 3241.06 1195.68 3240.87 1195.79 3240.76 1195.89 3240.64 1196.03 3240.58 1196.18 3240.58 1196.35 3240.58 1196.49 3240.64 1196.59 3240.76 1196.7 3240.87 1196.75 3241.06 1196.75 3241.34L1196.75 3243.23C1196.75 3243.5 1196.7 3243.69 1196.59 3243.8 1196.49 3243.92 1196.35 3243.97 1196.18 3243.97 1196.04 3243.97 1195.91 3243.92 1195.81 3243.83 1195.71 3243.73 1195.65 3243.57 1195.63 3243.35 1195.58 3242.83 1195.31 3242.39 1194.81 3242.05 1194.09 3241.56 1193.14 3241.31 1191.95 3241.31 1190.71 3241.31 1189.75 3241.56 1189.07 3242.06 1188.55 3242.44 1188.29 3242.86 1188.29 3243.33 1188.29 3243.85 1188.6 3244.29 1189.21 3244.65 1189.63 3244.89 1190.43 3245.08 1191.61 3245.21 1193.15 3245.38 1194.22 3245.57 1194.81 3245.78 1195.67 3246.09 1196.3 3246.51 1196.72 3247.06 1197.14 3247.6 1197.34 3248.19 1197.34 3248.82 1197.34 3249.77 1196.89 3250.6 1195.99 3251.34 1195.08 3252.07 1193.75 3252.44 1192.01 3252.44 1190.26 3252.44 1188.82 3251.99 1187.71 3251.11 1187.71 3251.4 1187.69 3251.6 1187.65 3251.69 1187.62 3251.77 1187.56 3251.85 1187.46 3251.91 1187.37 3251.97 1187.27 3252 1187.15 3252 1187 3252 1186.86 3251.94 1186.76 3251.83 1186.65 3251.72 1186.6 3251.53 1186.6 3251.26L1186.6 3248.98C1186.6 3248.72 1186.65 3248.53 1186.75 3248.42 1186.85 3248.3 1186.99 3248.24 1187.15 3248.24 1187.31 3248.24 1187.45 3248.3 1187.56 3248.41 1187.67 3248.52 1187.72 3248.67 1187.72 3248.85 1187.72 3249.26 1187.82 3249.59 1188.02 3249.87 1188.33 3250.29 1188.82 3250.64 1189.49 3250.91 1190.17 3251.19 1190.99 3251.33 1191.97 3251.33 1193.41 3251.33 1194.48 3251.06 1195.18 3250.53 1195.89 3249.99 1196.24 3249.42 1196.24 3248.82 1196.24 3248.14 1195.88 3247.59 1195.17 3247.18 1194.45 3246.76 1193.4 3246.49 1192.03 3246.35 1190.65 3246.21 1189.66 3246.02 1189.07 3245.79 1188.47 3245.56 1188 3245.22 1187.67 3244.76 1187.33 3244.31 1187.17 3243.81 1187.17 3243.29 1187.17 3242.34 1187.63 3241.58 1188.56 3241.03 1189.5 3240.47 1190.61 3240.19 1191.9 3240.19ZM1173.76 3240.19C1174.34 3240.19 1174.84 3240.34 1175.27 3240.64 1175.7 3240.95 1176.06 3241.41 1176.35 3242.02 1176.84 3241.41 1177.34 3240.95 1177.84 3240.64 1178.35 3240.34 1178.86 3240.19 1179.37 3240.19 1180.17 3240.19 1180.8 3240.45 1181.28 3240.97 1181.9 3241.64 1182.21 3242.36 1182.21 3243.16L1182.21 3250.89 1183.15 3250.89C1183.41 3250.89 1183.6 3250.95 1183.72 3251.05 1183.83 3251.15 1183.89 3251.28 1183.89 3251.45 1183.89 3251.61 1183.83 3251.74 1183.72 3251.84 1183.6 3251.95 1183.41 3252 1183.15 3252L1181.11 3252 1181.11 3243.26C1181.11 3242.7 1180.94 3242.23 1180.59 3241.86 1180.25 3241.49 1179.85 3241.31 1179.41 3241.31 1179 3241.31 1178.58 3241.46 1178.13 3241.76 1177.68 3242.07 1177.17 3242.66 1176.6 3243.55L1176.6 3250.89 1177.52 3250.89C1177.79 3250.89 1177.97 3250.95 1178.09 3251.05 1178.2 3251.15 1178.26 3251.28 1178.26 3251.45 1178.26 3251.61 1178.2 3251.74 1178.09 3251.84 1177.97 3251.95 1177.79 3252 1177.52 3252L1175.48 3252 1175.48 3243.34C1175.48 3242.75 1175.3 3242.27 1174.96 3241.88 1174.61 3241.5 1174.22 3241.31 1173.79 3241.31 1173.39 3241.31 1173 3241.44 1172.62 3241.69 1172.08 3242.05 1171.52 3242.67 1170.93 3243.55L1170.93 3250.89 1171.87 3250.89C1172.13 3250.89 1172.32 3250.95 1172.43 3251.05 1172.55 3251.15 1172.6 3251.28 1172.6 3251.45 1172.6 3251.61 1172.55 3251.74 1172.43 3251.84 1172.32 3251.95 1172.13 3252 1171.87 3252L1168.89 3252C1168.62 3252 1168.43 3251.95 1168.32 3251.84 1168.2 3251.74 1168.15 3251.61 1168.15 3251.45 1168.15 3251.28 1168.2 3251.15 1168.32 3251.05 1168.43 3250.95 1168.62 3250.89 1168.89 3250.89L1169.82 3250.89 1169.82 3241.71 1168.89 3241.71C1168.62 3241.71 1168.43 3241.65 1168.32 3241.55 1168.2 3241.44 1168.15 3241.31 1168.15 3241.14 1168.15 3240.98 1168.2 3240.85 1168.32 3240.74 1168.43 3240.64 1168.62 3240.58 1168.89 3240.58L1170.93 3240.58 1170.93 3241.71C1171.87 3240.69 1172.81 3240.19 1173.76 3240.19ZM1319.73 3237.68 1316.76 3245.74 1323.2 3245.74 1320.14 3237.68ZM1255.99 3237.33C1254.44 3237.33 1253.11 3238.01 1252 3239.38 1250.9 3240.75 1250.35 3242.4 1250.35 3244.33 1250.35 3246.39 1250.93 3248.07 1252.08 3249.37 1253.24 3250.68 1254.54 3251.33 1255.99 3251.33 1257.65 3251.33 1259.01 3250.62 1260.05 3249.19 1261.1 3247.76 1261.62 3246.14 1261.62 3244.33 1261.62 3242.53 1261.1 3240.91 1260.05 3239.48 1259.01 3238.04 1257.65 3237.33 1255.99 3237.33ZM1393.22 3236.58 1396.12 3236.58 1404.29 3250.41 1404.29 3237.68 1402.25 3237.68C1401.98 3237.68 1401.79 3237.63 1401.68 3237.53 1401.57 3237.43 1401.51 3237.3 1401.51 3237.13 1401.51 3236.96 1401.56 3236.83 1401.67 3236.73 1401.78 3236.63 1401.97 3236.58 1402.25 3236.58L1406.33 3236.58C1406.6 3236.58 1406.79 3236.63 1406.9 3236.73 1407.01 3236.83 1407.07 3236.96 1407.07 3237.13 1407.07 3237.3 1407.01 3237.43 1406.9 3237.53 1406.79 3237.63 1406.6 3237.68 1406.33 3237.68L1405.4 3237.68 1405.4 3252 1403.97 3252 1395.81 3238.2 1395.81 3250.89 1397.86 3250.89C1398.13 3250.89 1398.32 3250.95 1398.44 3251.05 1398.55 3251.15 1398.61 3251.28 1398.61 3251.45 1398.61 3251.61 1398.55 3251.74 1398.44 3251.84 1398.32 3251.95 1398.13 3252 1397.86 3252L1393.78 3252C1393.51 3252 1393.32 3251.95 1393.2 3251.84 1393.09 3251.74 1393.03 3251.61 1393.03 3251.45 1393.03 3251.28 1393.09 3251.15 1393.2 3251.05 1393.32 3250.95 1393.51 3250.89 1393.78 3250.89L1394.71 3250.89 1394.71 3237.68 1393.22 3237.68C1392.95 3237.68 1392.76 3237.63 1392.65 3237.53 1392.53 3237.43 1392.48 3237.3 1392.48 3237.13 1392.48 3236.96 1392.53 3236.83 1392.65 3236.73 1392.76 3236.63 1392.95 3236.58 1393.22 3236.58ZM1377.77 3236.58 1389.41 3236.58 1389.41 3240.39C1389.41 3240.65 1389.36 3240.84 1389.26 3240.95 1389.16 3241.07 1389.02 3241.13 1388.86 3241.13 1388.69 3241.13 1388.56 3241.07 1388.45 3240.95 1388.35 3240.84 1388.3 3240.65 1388.3 3240.39L1388.3 3237.68 1380.37 3237.68 1380.37 3243.45 1384.33 3243.45 1384.33 3242.19C1384.33 3241.93 1384.39 3241.74 1384.49 3241.63 1384.6 3241.51 1384.73 3241.46 1384.9 3241.46 1385.06 3241.46 1385.19 3241.51 1385.3 3241.63 1385.4 3241.74 1385.46 3241.93 1385.46 3242.19L1385.46 3245.81C1385.46 3246.07 1385.4 3246.26 1385.3 3246.37 1385.19 3246.49 1385.06 3246.54 1384.9 3246.54 1384.73 3246.54 1384.6 3246.49 1384.49 3246.37 1384.39 3246.26 1384.33 3246.07 1384.33 3245.81L1384.33 3244.55 1380.37 3244.55 1380.37 3250.89 1388.88 3250.89 1388.88 3247.63C1388.88 3247.36 1388.93 3247.17 1389.03 3247.06 1389.14 3246.94 1389.27 3246.89 1389.44 3246.89 1389.6 3246.89 1389.74 3246.94 1389.84 3247.06 1389.94 3247.17 1389.99 3247.36 1389.99 3247.63L1389.99 3252 1377.77 3252C1377.51 3252 1377.32 3251.95 1377.2 3251.84 1377.09 3251.74 1377.03 3251.61 1377.03 3251.45 1377.03 3251.28 1377.09 3251.15 1377.2 3251.05 1377.32 3250.95 1377.51 3250.89 1377.77 3250.89L1379.26 3250.89 1379.26 3237.68 1377.77 3237.68C1377.51 3237.68 1377.32 3237.63 1377.2 3237.53 1377.09 3237.43 1377.03 3237.3 1377.03 3237.13 1377.03 3236.96 1377.09 3236.83 1377.2 3236.73 1377.32 3236.63 1377.51 3236.58 1377.77 3236.58ZM1362.3 3236.58 1368.69 3236.58C1368.95 3236.58 1369.14 3236.63 1369.26 3236.73 1369.37 3236.83 1369.43 3236.96 1369.43 3237.13 1369.43 3237.3 1369.37 3237.43 1369.26 3237.53 1369.14 3237.63 1368.95 3237.68 1368.69 3237.68L1366.05 3237.68 1366.05 3250.89 1373.41 3250.89 1373.41 3246.49C1373.41 3246.23 1373.46 3246.04 1373.57 3245.92 1373.67 3245.81 1373.81 3245.75 1373.98 3245.75 1374.14 3245.75 1374.27 3245.81 1374.37 3245.92 1374.48 3246.03 1374.53 3246.22 1374.53 3246.49L1374.53 3252 1362.3 3252C1362.03 3252 1361.84 3251.95 1361.73 3251.84 1361.62 3251.74 1361.56 3251.61 1361.56 3251.45 1361.56 3251.28 1361.62 3251.15 1361.73 3251.05 1361.84 3250.95 1362.03 3250.89 1362.3 3250.89L1364.93 3250.89 1364.93 3237.68 1362.3 3237.68C1362.03 3237.68 1361.84 3237.63 1361.73 3237.53 1361.62 3237.43 1361.56 3237.3 1361.56 3237.13 1361.56 3236.96 1361.62 3236.83 1361.73 3236.73 1361.84 3236.63 1362.03 3236.58 1362.3 3236.58ZM1329.9 3236.58 1332.92 3236.58C1333.19 3236.58 1333.39 3236.63 1333.5 3236.73 1333.61 3236.83 1333.67 3236.96 1333.67 3237.13 1333.67 3237.3 1333.61 3237.43 1333.5 3237.53 1333.39 3237.63 1333.19 3237.68 1332.92 3237.68L1331.68 3237.68 1335.95 3243.21 1340.2 3237.68 1338.96 3237.68C1338.69 3237.68 1338.49 3237.63 1338.38 3237.53 1338.26 3237.43 1338.21 3237.3 1338.21 3237.13 1338.21 3236.96 1338.26 3236.83 1338.38 3236.73 1338.49 3236.63 1338.69 3236.58 1338.96 3236.58L1341.99 3236.58C1342.25 3236.58 1342.44 3236.63 1342.56 3236.73 1342.67 3236.83 1342.73 3236.96 1342.73 3237.13 1342.73 3237.3 1342.67 3237.43 1342.56 3237.53 1342.44 3237.63 1342.25 3237.68 1341.99 3237.68L1341.57 3237.68 1336.64 3244.1 1341.9 3250.89 1342.32 3250.89C1342.58 3250.89 1342.77 3250.95 1342.89 3251.05 1343 3251.15 1343.06 3251.28 1343.06 3251.45 1343.06 3251.61 1343 3251.74 1342.89 3251.84 1342.77 3251.95 1342.58 3252 1342.32 3252L1338.76 3252C1338.5 3252 1338.31 3251.95 1338.19 3251.84 1338.08 3251.74 1338.02 3251.61 1338.02 3251.45 1338.02 3251.28 1338.08 3251.15 1338.19 3251.05 1338.31 3250.95 1338.5 3250.89 1338.76 3250.89L1340.53 3250.89 1335.95 3245.01 1331.43 3250.89 1333.2 3250.89C1333.46 3250.89 1333.65 3250.95 1333.76 3251.05 1333.88 3251.15 1333.94 3251.28 1333.94 3251.45 1333.94 3251.61 1333.88 3251.74 1333.76 3251.84 1333.65 3251.95 1333.46 3252 1333.2 3252L1329.66 3252C1329.4 3252 1329.21 3251.95 1329.1 3251.84 1328.98 3251.74 1328.93 3251.61 1328.93 3251.45 1328.93 3251.33 1328.96 3251.22 1329.03 3251.12 1329.1 3251.02 1329.18 3250.96 1329.27 3250.93 1329.36 3250.91 1329.62 3250.89 1330.07 3250.89L1335.27 3244.1 1330.31 3237.68 1329.9 3237.68C1329.64 3237.68 1329.45 3237.63 1329.33 3237.53 1329.22 3237.43 1329.16 3237.3 1329.16 3237.13 1329.16 3236.96 1329.22 3236.83 1329.33 3236.73 1329.45 3236.63 1329.64 3236.58 1329.9 3236.58ZM1315.31 3236.58 1320.89 3236.58 1326.29 3250.89 1327.15 3250.89C1327.41 3250.89 1327.6 3250.95 1327.72 3251.05 1327.83 3251.15 1327.89 3251.28 1327.89 3251.45 1327.89 3251.61 1327.83 3251.74 1327.72 3251.84 1327.6 3251.95 1327.41 3252 1327.15 3252L1323.02 3252C1322.75 3252 1322.56 3251.95 1322.44 3251.84 1322.33 3251.74 1322.27 3251.61 1322.27 3251.45 1322.27 3251.28 1322.33 3251.15 1322.44 3251.05 1322.56 3250.95 1322.75 3250.89 1323.02 3250.89L1325.13 3250.89 1323.62 3246.85 1316.34 3246.85 1314.85 3250.89 1316.97 3250.89C1317.24 3250.89 1317.43 3250.95 1317.54 3251.05 1317.65 3251.15 1317.71 3251.28 1317.71 3251.45 1317.71 3251.61 1317.65 3251.74 1317.54 3251.84 1317.43 3251.95 1317.24 3252 1316.97 3252L1312.83 3252C1312.57 3252 1312.38 3251.95 1312.27 3251.84 1312.15 3251.74 1312.1 3251.61 1312.1 3251.45 1312.1 3251.28 1312.15 3251.15 1312.27 3251.05 1312.38 3250.95 1312.57 3250.89 1312.83 3250.89L1313.69 3250.89 1318.58 3237.68 1315.31 3237.68C1315.05 3237.68 1314.86 3237.63 1314.74 3237.53 1314.63 3237.43 1314.57 3237.3 1314.57 3237.13 1314.57 3236.96 1314.63 3236.83 1314.74 3236.73 1314.86 3236.63 1315.05 3236.58 1315.31 3236.58ZM1297.16 3236.58 1299.88 3236.58 1304.07 3246.12 1308.2 3236.58 1310.91 3236.58C1311.19 3236.58 1311.38 3236.63 1311.49 3236.73 1311.61 3236.83 1311.66 3236.96 1311.66 3237.13 1311.66 3237.3 1311.61 3237.43 1311.49 3237.53 1311.38 3237.63 1311.19 3237.68 1310.91 3237.68L1310.23 3237.68 1310.23 3250.89 1311.15 3250.89C1311.42 3250.89 1311.62 3250.95 1311.73 3251.05 1311.85 3251.15 1311.9 3251.28 1311.9 3251.45 1311.9 3251.61 1311.85 3251.74 1311.73 3251.84 1311.62 3251.95 1311.42 3252 1311.15 3252L1307.08 3252C1306.81 3252 1306.62 3251.95 1306.5 3251.84 1306.38 3251.74 1306.33 3251.61 1306.33 3251.45 1306.33 3251.28 1306.38 3251.15 1306.5 3251.05 1306.61 3250.95 1306.8 3250.89 1307.08 3250.89L1309.12 3250.89 1309.12 3237.68 1308.88 3237.68 1304.7 3247.37 1303.44 3247.37 1299.18 3237.68 1298.97 3237.68 1298.97 3250.89 1301.01 3250.89C1301.28 3250.89 1301.47 3250.95 1301.58 3251.05 1301.69 3251.15 1301.75 3251.28 1301.75 3251.45 1301.75 3251.61 1301.69 3251.74 1301.58 3251.84 1301.47 3251.95 1301.28 3252 1301.01 3252L1296.93 3252C1296.66 3252 1296.47 3251.95 1296.36 3251.84 1296.24 3251.74 1296.19 3251.61 1296.19 3251.45 1296.19 3251.28 1296.24 3251.15 1296.36 3251.05 1296.47 3250.95 1296.66 3250.89 1296.93 3250.89L1297.86 3250.89 1297.86 3237.68 1297.16 3237.68C1296.9 3237.68 1296.71 3237.63 1296.6 3237.53 1296.48 3237.43 1296.42 3237.3 1296.42 3237.13 1296.42 3236.96 1296.48 3236.83 1296.6 3236.73 1296.71 3236.63 1296.9 3236.58 1297.16 3236.58ZM1234.3 3236.58 1240.69 3236.58C1240.95 3236.58 1241.14 3236.63 1241.26 3236.73 1241.37 3236.83 1241.43 3236.96 1241.43 3237.13 1241.43 3237.3 1241.37 3237.43 1241.26 3237.53 1241.14 3237.63 1240.95 3237.68 1240.69 3237.68L1238.05 3237.68 1238.05 3250.89 1245.41 3250.89 1245.41 3246.49C1245.41 3246.23 1245.46 3246.04 1245.57 3245.92 1245.67 3245.81 1245.81 3245.75 1245.98 3245.75 1246.14 3245.75 1246.27 3245.81 1246.37 3245.92 1246.48 3246.03 1246.53 3246.22 1246.53 3246.49L1246.53 3252 1234.3 3252C1234.03 3252 1233.84 3251.95 1233.73 3251.84 1233.62 3251.74 1233.56 3251.61 1233.56 3251.45 1233.56 3251.28 1233.62 3251.15 1233.73 3251.05 1233.84 3250.95 1234.03 3250.89 1234.3 3250.89L1236.93 3250.89 1236.93 3237.68 1234.3 3237.68C1234.03 3237.68 1233.84 3237.63 1233.73 3237.53 1233.62 3237.43 1233.56 3237.3 1233.56 3237.13 1233.56 3236.96 1233.62 3236.83 1233.73 3236.73 1233.84 3236.63 1234.03 3236.58 1234.3 3236.58ZM1272.35 3236.22C1274.13 3236.22 1275.64 3236.71 1276.87 3237.68 1276.87 3237.25 1276.89 3236.99 1276.92 3236.91 1276.95 3236.82 1277.01 3236.74 1277.11 3236.68 1277.2 3236.61 1277.31 3236.58 1277.44 3236.58 1277.6 3236.58 1277.73 3236.63 1277.83 3236.75 1277.94 3236.86 1277.99 3237.05 1277.99 3237.32L1277.99 3239.82C1277.99 3240.09 1277.94 3240.28 1277.83 3240.39 1277.73 3240.5 1277.6 3240.56 1277.44 3240.56 1277.29 3240.56 1277.16 3240.51 1277.06 3240.41 1276.96 3240.31 1276.91 3240.13 1276.9 3239.87 1276.84 3239.13 1276.36 3238.52 1275.44 3238.04 1274.52 3237.57 1273.52 3237.33 1272.44 3237.33 1271.42 3237.33 1270.5 3237.55 1269.68 3237.99 1268.86 3238.44 1268.09 3239.28 1267.38 3240.53 1266.9 3241.35 1266.67 3242.28 1266.67 3243.31L1266.67 3245.33C1266.67 3247.17 1267.23 3248.63 1268.35 3249.71 1269.48 3250.79 1271.03 3251.33 1273.01 3251.33 1273.68 3251.33 1274.29 3251.26 1274.87 3251.12 1275.44 3250.98 1276.11 3250.73 1276.87 3250.38L1276.87 3246.28 1273.06 3246.28C1272.8 3246.28 1272.61 3246.23 1272.49 3246.13 1272.38 3246.03 1272.32 3245.89 1272.32 3245.73 1272.32 3245.56 1272.38 3245.42 1272.49 3245.32 1272.61 3245.21 1272.8 3245.16 1273.06 3245.16L1278.39 3245.17C1278.65 3245.17 1278.84 3245.22 1278.95 3245.32 1279.07 3245.43 1279.12 3245.56 1279.12 3245.73 1279.12 3245.84 1279.09 3245.95 1279.02 3246.04 1278.95 3246.14 1278.87 3246.2 1278.78 3246.23 1278.69 3246.26 1278.43 3246.28 1277.99 3246.28L1277.99 3251.03C1277.15 3251.49 1276.31 3251.84 1275.47 3252.08 1274.63 3252.32 1273.79 3252.44 1272.95 3252.44 1271.77 3252.44 1270.72 3252.26 1269.82 3251.91 1268.92 3251.56 1268.16 3251.07 1267.54 3250.43 1266.91 3249.8 1266.43 3249.09 1266.08 3248.31 1265.73 3247.53 1265.56 3246.54 1265.56 3245.33L1265.56 3243.3C1265.56 3242.09 1265.86 3240.91 1266.46 3239.76 1267.06 3238.61 1267.89 3237.74 1268.93 3237.13 1269.98 3236.52 1271.12 3236.22 1272.35 3236.22ZM1255.99 3236.22C1257.2 3236.22 1258.32 3236.57 1259.37 3237.28 1260.41 3237.98 1261.24 3238.96 1261.84 3240.22 1262.44 3241.47 1262.74 3242.84 1262.74 3244.33 1262.74 3245.81 1262.44 3247.17 1261.85 3248.44 1261.25 3249.7 1260.42 3250.68 1259.37 3251.38 1258.32 3252.09 1257.2 3252.44 1255.99 3252.44 1254.21 3252.44 1252.64 3251.68 1251.28 3250.16 1249.92 3248.65 1249.24 3246.7 1249.24 3244.33 1249.24 3241.95 1249.92 3240 1251.28 3238.49 1252.64 3236.98 1254.21 3236.22 1255.99 3236.22ZM1223.43 3235.46 1227.22 3235.46C1227.49 3235.46 1227.67 3235.51 1227.79 3235.61 1227.9 3235.72 1227.96 3235.86 1227.96 3236.02 1227.96 3236.18 1227.9 3236.31 1227.79 3236.42 1227.67 3236.52 1227.49 3236.58 1227.22 3236.58L1224.53 3236.58 1224.53 3254.31 1227.22 3254.31C1227.49 3254.31 1227.67 3254.36 1227.79 3254.46 1227.9 3254.56 1227.96 3254.7 1227.96 3254.86 1227.96 3255.03 1227.9 3255.16 1227.79 3255.26 1227.67 3255.37 1227.49 3255.42 1227.22 3255.42L1223.43 3255.42Z" stroke="#000000" stroke-width="2" stroke-linejoin="round" stroke-miterlimit="10" fill-rule="evenodd"/><text fill="#000000" fill-opacity="0" font-family="Arial,Arial_MSFontService,sans-serif" font-size="23.9414" x="1168.15" y="3256.41">msg[LOG_MAX_LEN</text><path d="M1410.32 3243.58 1421.62 3243.58 1421.62 3245.16 1410.32 3245.16Z" stroke="#000000" stroke-width="2" stroke-linejoin="round" stroke-miterlimit="10" fill-rule="evenodd"/><text fill="#000000" fill-opacity="0" font-family="Arial,Arial_MSFontService,sans-serif" font-size="1.58203" x="1410.32" y="3244.96">-</text><path d="M1444.78 3235.46 1448.57 3235.46 1448.57 3255.42 1444.78 3255.42C1444.51 3255.42 1444.32 3255.37 1444.21 3255.26 1444.09 3255.16 1444.04 3255.03 1444.04 3254.86 1444.04 3254.7 1444.09 3254.57 1444.21 3254.47 1444.32 3254.36 1444.51 3254.31 1444.78 3254.31L1447.45 3254.31 1447.45 3236.58 1444.78 3236.58C1444.51 3236.58 1444.32 3236.52 1444.21 3236.42 1444.09 3236.31 1444.04 3236.18 1444.04 3236.02 1444.04 3235.86 1444.09 3235.72 1444.21 3235.61 1444.32 3235.51 1444.51 3235.46 1444.78 3235.46ZM1432.52 3235.23 1432.52 3250.89 1436.32 3250.89C1436.58 3250.89 1436.77 3250.95 1436.88 3251.05 1437 3251.15 1437.05 3251.28 1437.05 3251.45 1437.05 3251.61 1437 3251.74 1436.88 3251.84 1436.77 3251.95 1436.58 3252 1436.32 3252L1427.62 3252C1427.35 3252 1427.16 3251.95 1427.05 3251.84 1426.93 3251.74 1426.88 3251.61 1426.88 3251.45 1426.88 3251.28 1426.93 3251.15 1427.05 3251.05 1427.16 3250.95 1427.35 3250.89 1427.62 3250.89L1431.41 3250.89 1431.41 3236.76 1427.8 3237.9C1427.62 3237.95 1427.5 3237.97 1427.42 3237.97 1427.29 3237.97 1427.16 3237.92 1427.05 3237.81 1426.94 3237.7 1426.89 3237.57 1426.89 3237.42 1426.89 3237.29 1426.93 3237.17 1427.02 3237.05 1427.09 3236.98 1427.24 3236.91 1427.46 3236.83Z" stroke="#000000" stroke-width="2" stroke-linejoin="round" stroke-miterlimit="10" fill-rule="evenodd"/><text fill="#000000" fill-opacity="0" font-family="Arial,Arial_MSFontService,sans-serif" font-size="20.1841" x="1426.88" y="3252.89">1]</text><rect x="1112" y="3296" width="400" height="104" stroke="#000000" stroke-width="2" stroke-miterlimit="8" fill="#FFFFFF"/><path d="M1344.61 3362.29 1359.34 3362.29C1359.61 3362.29 1359.8 3362.34 1359.91 3362.44 1360.02 3362.54 1360.07 3362.68 1360.07 3362.84 1360.07 3363.01 1360.02 3363.15 1359.91 3363.25 1359.8 3363.35 1359.61 3363.4 1359.34 3363.4L1344.61 3363.4C1344.35 3363.4 1344.16 3363.35 1344.04 3363.25 1343.93 3363.15 1343.87 3363.01 1343.87 3362.84 1343.87 3362.68 1343.93 3362.54 1344.04 3362.44 1344.16 3362.34 1344.35 3362.29 1344.61 3362.29ZM1280.61 3362.29 1295.34 3362.29C1295.61 3362.29 1295.8 3362.34 1295.91 3362.44 1296.02 3362.54 1296.07 3362.68 1296.07 3362.84 1296.07 3363.01 1296.02 3363.15 1295.91 3363.25 1295.8 3363.35 1295.61 3363.4 1295.34 3363.4L1280.61 3363.4C1280.35 3363.4 1280.16 3363.35 1280.04 3363.25 1279.93 3363.15 1279.87 3363.01 1279.87 3362.84 1279.87 3362.68 1279.93 3362.54 1280.04 3362.44 1280.16 3362.34 1280.35 3362.29 1280.61 3362.29ZM1207.16 3345.31C1205.92 3345.31 1204.86 3345.76 1203.97 3346.66 1203.08 3347.56 1202.64 3348.66 1202.64 3349.95 1202.64 3351.25 1203.08 3352.35 1203.97 3353.25 1204.86 3354.15 1205.92 3354.6 1207.16 3354.6 1208.4 3354.6 1209.47 3354.15 1210.36 3353.25 1211.25 3352.35 1211.7 3351.25 1211.7 3349.95 1211.7 3348.65 1211.25 3347.55 1210.36 3346.66 1209.47 3345.76 1208.4 3345.31 1207.16 3345.31ZM1207.11 3344.19C1208.98 3344.19 1210.51 3345 1211.7 3346.62L1211.7 3344.59 1214.29 3344.59C1214.56 3344.59 1214.75 3344.64 1214.86 3344.74 1214.97 3344.85 1215.03 3344.99 1215.03 3345.15 1215.03 3345.31 1214.97 3345.44 1214.86 3345.55 1214.75 3345.65 1214.56 3345.71 1214.29 3345.71L1212.8 3345.71 1212.8 3356.77C1212.8 3357.51 1212.65 3358.16 1212.33 3358.74 1212.12 3359.13 1211.77 3359.53 1211.27 3359.94 1210.78 3360.36 1210.33 3360.65 1209.93 3360.83 1209.53 3361 1208.99 3361.09 1208.31 3361.09L1205.17 3361.09C1204.91 3361.09 1204.72 3361.04 1204.6 3360.94 1204.49 3360.84 1204.43 3360.7 1204.43 3360.54 1204.43 3360.37 1204.49 3360.23 1204.6 3360.13 1204.72 3360.02 1204.91 3359.97 1205.17 3359.97L1208.35 3359.98C1209 3359.98 1209.59 3359.82 1210.11 3359.48 1210.63 3359.15 1211.06 3358.66 1211.41 3358.02 1211.6 3357.65 1211.7 3357.18 1211.7 3356.61L1211.7 3353.29C1210.51 3354.91 1208.98 3355.73 1207.11 3355.73 1205.59 3355.73 1204.28 3355.16 1203.17 3354.03 1202.07 3352.9 1201.52 3351.54 1201.52 3349.95 1201.52 3348.36 1202.07 3347 1203.17 3345.88 1204.28 3344.75 1205.59 3344.19 1207.11 3344.19ZM1191.9 3344.19C1193.43 3344.19 1194.67 3344.56 1195.63 3345.31 1195.63 3345.06 1195.68 3344.87 1195.79 3344.76 1195.89 3344.64 1196.03 3344.59 1196.18 3344.59 1196.35 3344.59 1196.49 3344.64 1196.59 3344.76 1196.7 3344.87 1196.75 3345.06 1196.75 3345.34L1196.75 3347.24C1196.75 3347.5 1196.7 3347.69 1196.59 3347.8 1196.49 3347.92 1196.35 3347.97 1196.18 3347.97 1196.04 3347.97 1195.91 3347.93 1195.81 3347.83 1195.71 3347.73 1195.65 3347.57 1195.63 3347.35 1195.58 3346.83 1195.31 3346.39 1194.81 3346.05 1194.09 3345.56 1193.14 3345.31 1191.95 3345.31 1190.71 3345.31 1189.75 3345.56 1189.07 3346.06 1188.55 3346.44 1188.29 3346.86 1188.29 3347.33 1188.29 3347.85 1188.6 3348.29 1189.21 3348.65 1189.63 3348.89 1190.43 3349.08 1191.61 3349.21 1193.15 3349.38 1194.22 3349.57 1194.81 3349.78 1195.67 3350.09 1196.3 3350.51 1196.72 3351.06 1197.14 3351.6 1197.34 3352.19 1197.34 3352.83 1197.34 3353.77 1196.89 3354.6 1195.99 3355.34 1195.08 3356.07 1193.75 3356.44 1192.01 3356.44 1190.26 3356.44 1188.82 3355.99 1187.71 3355.11 1187.71 3355.4 1187.69 3355.6 1187.65 3355.69 1187.62 3355.77 1187.56 3355.85 1187.46 3355.91 1187.37 3355.97 1187.27 3356 1187.15 3356 1187 3356 1186.86 3355.95 1186.76 3355.83 1186.65 3355.72 1186.6 3355.53 1186.6 3355.26L1186.6 3352.98C1186.6 3352.72 1186.65 3352.53 1186.75 3352.42 1186.85 3352.3 1186.99 3352.25 1187.15 3352.25 1187.31 3352.25 1187.45 3352.3 1187.56 3352.41 1187.67 3352.52 1187.72 3352.67 1187.72 3352.85 1187.72 3353.26 1187.82 3353.59 1188.02 3353.87 1188.33 3354.29 1188.82 3354.64 1189.49 3354.91 1190.17 3355.19 1190.99 3355.33 1191.97 3355.33 1193.41 3355.33 1194.48 3355.06 1195.18 3354.53 1195.89 3353.99 1196.24 3353.42 1196.24 3352.83 1196.24 3352.14 1195.88 3351.59 1195.17 3351.18 1194.45 3350.76 1193.4 3350.49 1192.03 3350.35 1190.65 3350.21 1189.66 3350.02 1189.07 3349.79 1188.47 3349.56 1188 3349.22 1187.67 3348.76 1187.33 3348.31 1187.17 3347.82 1187.17 3347.29 1187.17 3346.34 1187.63 3345.59 1188.56 3345.03 1189.5 3344.47 1190.61 3344.19 1191.9 3344.19ZM1173.76 3344.19C1174.34 3344.19 1174.84 3344.34 1175.27 3344.64 1175.7 3344.95 1176.06 3345.41 1176.35 3346.02 1176.84 3345.41 1177.34 3344.95 1177.84 3344.64 1178.35 3344.34 1178.86 3344.19 1179.37 3344.19 1180.17 3344.19 1180.8 3344.45 1181.28 3344.97 1181.9 3345.64 1182.21 3346.37 1182.21 3347.16L1182.21 3354.9 1183.15 3354.9C1183.41 3354.9 1183.6 3354.95 1183.72 3355.05 1183.83 3355.15 1183.89 3355.28 1183.89 3355.45 1183.89 3355.61 1183.83 3355.74 1183.72 3355.84 1183.6 3355.95 1183.41 3356 1183.15 3356L1181.11 3356 1181.11 3347.26C1181.11 3346.7 1180.94 3346.23 1180.59 3345.86 1180.25 3345.5 1179.85 3345.31 1179.41 3345.31 1179 3345.31 1178.58 3345.46 1178.13 3345.77 1177.68 3346.07 1177.17 3346.66 1176.6 3347.55L1176.6 3354.9 1177.52 3354.9C1177.79 3354.9 1177.97 3354.95 1178.09 3355.05 1178.2 3355.15 1178.26 3355.28 1178.26 3355.45 1178.26 3355.61 1178.2 3355.74 1178.09 3355.84 1177.97 3355.95 1177.79 3356 1177.52 3356L1175.48 3356 1175.48 3347.34C1175.48 3346.75 1175.3 3346.27 1174.96 3345.88 1174.61 3345.5 1174.22 3345.31 1173.79 3345.31 1173.39 3345.31 1173 3345.44 1172.62 3345.69 1172.08 3346.05 1171.52 3346.67 1170.93 3347.55L1170.93 3354.9 1171.87 3354.9C1172.13 3354.9 1172.32 3354.95 1172.43 3355.05 1172.55 3355.15 1172.6 3355.28 1172.6 3355.45 1172.6 3355.61 1172.55 3355.74 1172.43 3355.84 1172.32 3355.95 1172.13 3356 1171.87 3356L1168.89 3356C1168.62 3356 1168.43 3355.95 1168.32 3355.84 1168.2 3355.74 1168.15 3355.61 1168.15 3355.45 1168.15 3355.28 1168.2 3355.15 1168.32 3355.05 1168.43 3354.95 1168.62 3354.9 1168.89 3354.9L1169.82 3354.9 1169.82 3345.71 1168.89 3345.71C1168.62 3345.71 1168.43 3345.65 1168.32 3345.55 1168.2 3345.44 1168.15 3345.31 1168.15 3345.14 1168.15 3344.98 1168.2 3344.85 1168.32 3344.74 1168.43 3344.64 1168.62 3344.59 1168.89 3344.59L1170.93 3344.59 1170.93 3345.71C1171.87 3344.7 1172.81 3344.19 1173.76 3344.19ZM1319.73 3341.69 1316.76 3349.74 1323.2 3349.74 1320.14 3341.69ZM1255.99 3341.33C1254.44 3341.33 1253.11 3342.01 1252 3343.38 1250.9 3344.75 1250.35 3346.4 1250.35 3348.33 1250.35 3350.39 1250.93 3352.07 1252.08 3353.37 1253.24 3354.68 1254.54 3355.33 1255.99 3355.33 1257.65 3355.33 1259.01 3354.62 1260.05 3353.19 1261.1 3351.76 1261.62 3350.14 1261.62 3348.33 1261.62 3346.53 1261.1 3344.91 1260.05 3343.48 1259.01 3342.05 1257.65 3341.33 1255.99 3341.33ZM1393.22 3340.58 1396.12 3340.58 1404.29 3354.41 1404.29 3341.69 1402.25 3341.69C1401.98 3341.69 1401.79 3341.63 1401.68 3341.53 1401.57 3341.43 1401.51 3341.3 1401.51 3341.13 1401.51 3340.96 1401.56 3340.83 1401.67 3340.73 1401.78 3340.63 1401.97 3340.58 1402.25 3340.58L1406.33 3340.58C1406.6 3340.58 1406.79 3340.63 1406.9 3340.73 1407.01 3340.83 1407.07 3340.96 1407.07 3341.13 1407.07 3341.3 1407.01 3341.43 1406.9 3341.53 1406.79 3341.63 1406.6 3341.69 1406.33 3341.69L1405.4 3341.69 1405.4 3356 1403.97 3356 1395.81 3342.2 1395.81 3354.9 1397.86 3354.9C1398.13 3354.9 1398.32 3354.95 1398.44 3355.05 1398.55 3355.15 1398.61 3355.28 1398.61 3355.45 1398.61 3355.61 1398.55 3355.74 1398.44 3355.84 1398.32 3355.95 1398.13 3356 1397.86 3356L1393.78 3356C1393.51 3356 1393.32 3355.95 1393.2 3355.84 1393.09 3355.74 1393.03 3355.61 1393.03 3355.45 1393.03 3355.28 1393.09 3355.15 1393.2 3355.05 1393.32 3354.95 1393.51 3354.9 1393.78 3354.9L1394.71 3354.9 1394.71 3341.69 1393.22 3341.69C1392.95 3341.69 1392.76 3341.63 1392.65 3341.53 1392.53 3341.43 1392.48 3341.3 1392.48 3341.13 1392.48 3340.96 1392.53 3340.83 1392.65 3340.73 1392.76 3340.63 1392.95 3340.58 1393.22 3340.58ZM1377.77 3340.58 1389.41 3340.58 1389.41 3344.39C1389.41 3344.65 1389.36 3344.84 1389.26 3344.95 1389.16 3345.07 1389.02 3345.13 1388.86 3345.13 1388.69 3345.13 1388.56 3345.07 1388.45 3344.95 1388.35 3344.84 1388.3 3344.65 1388.3 3344.39L1388.3 3341.69 1380.37 3341.69 1380.37 3347.45 1384.33 3347.45 1384.33 3346.19C1384.33 3345.93 1384.39 3345.74 1384.49 3345.63 1384.6 3345.51 1384.73 3345.46 1384.9 3345.46 1385.06 3345.46 1385.19 3345.51 1385.3 3345.63 1385.4 3345.74 1385.46 3345.93 1385.46 3346.19L1385.46 3349.81C1385.46 3350.07 1385.4 3350.26 1385.3 3350.37 1385.19 3350.49 1385.06 3350.54 1384.9 3350.54 1384.73 3350.54 1384.6 3350.49 1384.49 3350.37 1384.39 3350.26 1384.33 3350.07 1384.33 3349.81L1384.33 3348.55 1380.37 3348.55 1380.37 3354.9 1388.88 3354.9 1388.88 3351.63C1388.88 3351.36 1388.93 3351.17 1389.03 3351.06 1389.14 3350.94 1389.27 3350.89 1389.44 3350.89 1389.6 3350.89 1389.74 3350.94 1389.84 3351.06 1389.94 3351.17 1389.99 3351.36 1389.99 3351.63L1389.99 3356 1377.77 3356C1377.51 3356 1377.32 3355.95 1377.2 3355.84 1377.09 3355.74 1377.03 3355.61 1377.03 3355.45 1377.03 3355.28 1377.09 3355.15 1377.2 3355.05 1377.32 3354.95 1377.51 3354.9 1377.77 3354.9L1379.26 3354.9 1379.26 3341.69 1377.77 3341.69C1377.51 3341.69 1377.32 3341.63 1377.2 3341.53 1377.09 3341.43 1377.03 3341.3 1377.03 3341.13 1377.03 3340.96 1377.09 3340.83 1377.2 3340.73 1377.32 3340.63 1377.51 3340.58 1377.77 3340.58ZM1362.3 3340.58 1368.69 3340.58C1368.95 3340.58 1369.14 3340.63 1369.26 3340.73 1369.37 3340.83 1369.43 3340.96 1369.43 3341.13 1369.43 3341.3 1369.37 3341.43 1369.26 3341.53 1369.14 3341.63 1368.95 3341.69 1368.69 3341.69L1366.05 3341.69 1366.05 3354.9 1373.41 3354.9 1373.41 3350.49C1373.41 3350.23 1373.46 3350.04 1373.57 3349.92 1373.67 3349.81 1373.81 3349.75 1373.98 3349.75 1374.14 3349.75 1374.27 3349.81 1374.37 3349.92 1374.48 3350.03 1374.53 3350.22 1374.53 3350.49L1374.53 3356 1362.3 3356C1362.03 3356 1361.84 3355.95 1361.73 3355.84 1361.62 3355.74 1361.56 3355.61 1361.56 3355.45 1361.56 3355.28 1361.62 3355.15 1361.73 3355.05 1361.84 3354.95 1362.03 3354.9 1362.3 3354.9L1364.93 3354.9 1364.93 3341.69 1362.3 3341.69C1362.03 3341.69 1361.84 3341.63 1361.73 3341.53 1361.62 3341.43 1361.56 3341.3 1361.56 3341.13 1361.56 3340.96 1361.62 3340.83 1361.73 3340.73 1361.84 3340.63 1362.03 3340.58 1362.3 3340.58ZM1329.9 3340.58 1332.92 3340.58C1333.19 3340.58 1333.39 3340.63 1333.5 3340.73 1333.61 3340.83 1333.67 3340.96 1333.67 3341.13 1333.67 3341.3 1333.61 3341.43 1333.5 3341.53 1333.39 3341.63 1333.19 3341.69 1332.92 3341.69L1331.68 3341.69 1335.95 3347.21 1340.2 3341.69 1338.96 3341.69C1338.69 3341.69 1338.49 3341.63 1338.38 3341.53 1338.26 3341.43 1338.21 3341.3 1338.21 3341.13 1338.21 3340.96 1338.26 3340.83 1338.38 3340.73 1338.49 3340.63 1338.69 3340.58 1338.96 3340.58L1341.99 3340.58C1342.25 3340.58 1342.44 3340.63 1342.56 3340.73 1342.67 3340.83 1342.73 3340.96 1342.73 3341.13 1342.73 3341.3 1342.67 3341.43 1342.56 3341.53 1342.44 3341.63 1342.25 3341.69 1341.99 3341.69L1341.57 3341.69 1336.64 3348.11 1341.9 3354.9 1342.32 3354.9C1342.58 3354.9 1342.77 3354.95 1342.89 3355.05 1343 3355.15 1343.06 3355.28 1343.06 3355.45 1343.06 3355.61 1343 3355.74 1342.89 3355.84 1342.77 3355.95 1342.58 3356 1342.32 3356L1338.76 3356C1338.5 3356 1338.31 3355.95 1338.19 3355.84 1338.08 3355.74 1338.02 3355.61 1338.02 3355.45 1338.02 3355.28 1338.08 3355.15 1338.19 3355.05 1338.31 3354.95 1338.5 3354.9 1338.76 3354.9L1340.53 3354.9 1335.95 3349.02 1331.43 3354.9 1333.2 3354.9C1333.46 3354.9 1333.65 3354.95 1333.76 3355.05 1333.88 3355.15 1333.94 3355.28 1333.94 3355.45 1333.94 3355.61 1333.88 3355.74 1333.76 3355.84 1333.65 3355.95 1333.46 3356 1333.2 3356L1329.66 3356C1329.4 3356 1329.21 3355.95 1329.1 3355.84 1328.98 3355.74 1328.93 3355.61 1328.93 3355.45 1328.93 3355.33 1328.96 3355.22 1329.03 3355.12 1329.1 3355.02 1329.18 3354.96 1329.27 3354.93 1329.36 3354.91 1329.62 3354.9 1330.07 3354.9L1335.27 3348.11 1330.31 3341.69 1329.9 3341.69C1329.64 3341.69 1329.45 3341.63 1329.33 3341.53 1329.22 3341.43 1329.16 3341.3 1329.16 3341.13 1329.16 3340.96 1329.22 3340.83 1329.33 3340.73 1329.45 3340.63 1329.64 3340.58 1329.9 3340.58ZM1315.31 3340.58 1320.89 3340.58 1326.29 3354.9 1327.15 3354.9C1327.41 3354.9 1327.6 3354.95 1327.72 3355.05 1327.83 3355.15 1327.89 3355.28 1327.89 3355.45 1327.89 3355.61 1327.83 3355.74 1327.72 3355.84 1327.6 3355.95 1327.41 3356 1327.15 3356L1323.02 3356C1322.75 3356 1322.56 3355.95 1322.44 3355.84 1322.33 3355.74 1322.27 3355.61 1322.27 3355.45 1322.27 3355.28 1322.33 3355.15 1322.44 3355.05 1322.56 3354.95 1322.75 3354.9 1323.02 3354.9L1325.13 3354.9 1323.62 3350.85 1316.34 3350.85 1314.85 3354.9 1316.97 3354.9C1317.24 3354.9 1317.43 3354.95 1317.54 3355.05 1317.65 3355.15 1317.71 3355.28 1317.71 3355.45 1317.71 3355.61 1317.65 3355.74 1317.54 3355.84 1317.43 3355.95 1317.24 3356 1316.97 3356L1312.83 3356C1312.57 3356 1312.38 3355.95 1312.27 3355.84 1312.15 3355.74 1312.1 3355.61 1312.1 3355.45 1312.1 3355.28 1312.15 3355.15 1312.27 3355.05 1312.38 3354.95 1312.57 3354.9 1312.83 3354.9L1313.69 3354.9 1318.58 3341.69 1315.31 3341.69C1315.05 3341.69 1314.86 3341.63 1314.74 3341.53 1314.63 3341.43 1314.57 3341.3 1314.57 3341.13 1314.57 3340.96 1314.63 3340.83 1314.74 3340.73 1314.86 3340.63 1315.05 3340.58 1315.31 3340.58ZM1297.16 3340.58 1299.88 3340.58 1304.07 3350.12 1308.2 3340.58 1310.91 3340.58C1311.19 3340.58 1311.38 3340.63 1311.49 3340.73 1311.61 3340.83 1311.66 3340.96 1311.66 3341.13 1311.66 3341.3 1311.61 3341.43 1311.49 3341.53 1311.38 3341.63 1311.19 3341.69 1310.91 3341.69L1310.23 3341.69 1310.23 3354.9 1311.15 3354.9C1311.42 3354.9 1311.62 3354.95 1311.73 3355.05 1311.85 3355.15 1311.9 3355.28 1311.9 3355.45 1311.9 3355.61 1311.85 3355.74 1311.73 3355.84 1311.62 3355.95 1311.42 3356 1311.15 3356L1307.08 3356C1306.81 3356 1306.62 3355.95 1306.5 3355.84 1306.38 3355.74 1306.33 3355.61 1306.33 3355.45 1306.33 3355.28 1306.38 3355.15 1306.5 3355.05 1306.61 3354.95 1306.8 3354.9 1307.08 3354.9L1309.12 3354.9 1309.12 3341.69 1308.88 3341.69 1304.7 3351.38 1303.44 3351.38 1299.18 3341.69 1298.97 3341.69 1298.97 3354.9 1301.01 3354.9C1301.28 3354.9 1301.47 3354.95 1301.58 3355.05 1301.69 3355.15 1301.75 3355.28 1301.75 3355.45 1301.75 3355.61 1301.69 3355.74 1301.58 3355.84 1301.47 3355.95 1301.28 3356 1301.01 3356L1296.93 3356C1296.66 3356 1296.47 3355.95 1296.36 3355.84 1296.24 3355.74 1296.19 3355.61 1296.19 3355.45 1296.19 3355.28 1296.24 3355.15 1296.36 3355.05 1296.47 3354.95 1296.66 3354.9 1296.93 3354.9L1297.86 3354.9 1297.86 3341.69 1297.16 3341.69C1296.9 3341.69 1296.71 3341.63 1296.6 3341.53 1296.48 3341.43 1296.42 3341.3 1296.42 3341.13 1296.42 3340.96 1296.48 3340.83 1296.6 3340.73 1296.71 3340.63 1296.9 3340.58 1297.16 3340.58ZM1234.3 3340.58 1240.69 3340.58C1240.95 3340.58 1241.14 3340.63 1241.26 3340.73 1241.37 3340.83 1241.43 3340.96 1241.43 3341.13 1241.43 3341.3 1241.37 3341.43 1241.26 3341.53 1241.14 3341.63 1240.95 3341.69 1240.69 3341.69L1238.05 3341.69 1238.05 3354.9 1245.41 3354.9 1245.41 3350.49C1245.41 3350.23 1245.46 3350.04 1245.57 3349.92 1245.67 3349.81 1245.81 3349.75 1245.98 3349.75 1246.14 3349.75 1246.27 3349.81 1246.37 3349.92 1246.48 3350.03 1246.53 3350.22 1246.53 3350.49L1246.53 3356 1234.3 3356C1234.03 3356 1233.84 3355.95 1233.73 3355.84 1233.62 3355.74 1233.56 3355.61 1233.56 3355.45 1233.56 3355.28 1233.62 3355.15 1233.73 3355.05 1233.84 3354.95 1234.03 3354.9 1234.3 3354.9L1236.93 3354.9 1236.93 3341.69 1234.3 3341.69C1234.03 3341.69 1233.84 3341.63 1233.73 3341.53 1233.62 3341.43 1233.56 3341.3 1233.56 3341.13 1233.56 3340.96 1233.62 3340.83 1233.73 3340.73 1233.84 3340.63 1234.03 3340.58 1234.3 3340.58ZM1272.35 3340.22C1274.13 3340.22 1275.64 3340.71 1276.87 3341.69 1276.87 3341.25 1276.89 3341 1276.92 3340.91 1276.95 3340.82 1277.01 3340.74 1277.11 3340.68 1277.2 3340.61 1277.31 3340.58 1277.44 3340.58 1277.6 3340.58 1277.73 3340.63 1277.83 3340.75 1277.94 3340.86 1277.99 3341.05 1277.99 3341.32L1277.99 3343.82C1277.99 3344.09 1277.94 3344.28 1277.83 3344.39 1277.73 3344.5 1277.6 3344.56 1277.44 3344.56 1277.29 3344.56 1277.16 3344.51 1277.06 3344.41 1276.96 3344.31 1276.91 3344.13 1276.9 3343.87 1276.84 3343.13 1276.36 3342.52 1275.44 3342.04 1274.52 3341.57 1273.52 3341.33 1272.44 3341.33 1271.42 3341.33 1270.5 3341.55 1269.68 3341.99 1268.86 3342.44 1268.09 3343.28 1267.38 3344.53 1266.9 3345.35 1266.67 3346.28 1266.67 3347.31L1266.67 3349.33C1266.67 3351.17 1267.23 3352.63 1268.35 3353.71 1269.48 3354.79 1271.03 3355.33 1273.01 3355.33 1273.68 3355.33 1274.29 3355.26 1274.87 3355.12 1275.44 3354.98 1276.11 3354.73 1276.87 3354.38L1276.87 3350.28 1273.06 3350.28C1272.8 3350.28 1272.61 3350.23 1272.49 3350.13 1272.38 3350.03 1272.32 3349.89 1272.32 3349.73 1272.32 3349.56 1272.38 3349.42 1272.49 3349.32 1272.61 3349.21 1272.8 3349.16 1273.06 3349.16L1278.39 3349.17C1278.65 3349.17 1278.84 3349.22 1278.95 3349.32 1279.07 3349.43 1279.12 3349.56 1279.12 3349.73 1279.12 3349.84 1279.09 3349.95 1279.02 3350.04 1278.95 3350.14 1278.87 3350.2 1278.78 3350.23 1278.69 3350.27 1278.43 3350.28 1277.99 3350.28L1277.99 3355.03C1277.15 3355.49 1276.31 3355.84 1275.47 3356.08 1274.63 3356.32 1273.79 3356.44 1272.95 3356.44 1271.77 3356.44 1270.72 3356.26 1269.82 3355.91 1268.92 3355.56 1268.16 3355.07 1267.54 3354.43 1266.91 3353.8 1266.43 3353.09 1266.08 3352.31 1265.73 3351.53 1265.56 3350.54 1265.56 3349.33L1265.56 3347.3C1265.56 3346.09 1265.86 3344.91 1266.46 3343.76 1267.06 3342.61 1267.89 3341.74 1268.93 3341.13 1269.98 3340.52 1271.12 3340.22 1272.35 3340.22ZM1255.99 3340.22C1257.2 3340.22 1258.32 3340.57 1259.37 3341.28 1260.41 3341.98 1261.24 3342.96 1261.84 3344.22 1262.44 3345.47 1262.74 3346.84 1262.74 3348.33 1262.74 3349.81 1262.44 3351.18 1261.85 3352.44 1261.25 3353.7 1260.42 3354.68 1259.37 3355.38 1258.32 3356.09 1257.2 3356.44 1255.99 3356.44 1254.21 3356.44 1252.64 3355.68 1251.28 3354.16 1249.92 3352.65 1249.24 3350.7 1249.24 3348.33 1249.24 3345.95 1249.92 3344 1251.28 3342.49 1252.64 3340.98 1254.21 3340.22 1255.99 3340.22ZM1223.43 3339.46 1227.22 3339.46C1227.49 3339.46 1227.67 3339.51 1227.79 3339.62 1227.9 3339.72 1227.96 3339.86 1227.96 3340.02 1227.96 3340.18 1227.9 3340.31 1227.79 3340.42 1227.67 3340.52 1227.49 3340.58 1227.22 3340.58L1224.53 3340.58 1224.53 3358.31 1227.22 3358.31C1227.49 3358.31 1227.67 3358.36 1227.79 3358.46 1227.9 3358.56 1227.96 3358.7 1227.96 3358.86 1227.96 3359.03 1227.9 3359.16 1227.79 3359.27 1227.67 3359.37 1227.49 3359.42 1227.22 3359.42L1223.43 3359.42Z" stroke="#000000" stroke-width="2" stroke-linejoin="round" stroke-miterlimit="10" fill-rule="evenodd"/><text fill="#000000" fill-opacity="0" font-family="Arial,Arial_MSFontService,sans-serif" font-size="23.9414" x="1168.15" y="3360.41">msg[LOG_MAX_LEN</text><path d="M1410.32 3347.58 1421.62 3347.58 1421.62 3349.16 1410.32 3349.16Z" stroke="#000000" stroke-width="2" stroke-linejoin="round" stroke-miterlimit="10" fill-rule="evenodd"/><text fill="#000000" fill-opacity="0" font-family="Arial,Arial_MSFontService,sans-serif" font-size="1.58203" x="1410.32" y="3348.96">-</text><path d="M1444.78 3339.46 1448.57 3339.46 1448.57 3359.42 1444.78 3359.42C1444.51 3359.42 1444.32 3359.37 1444.21 3359.27 1444.09 3359.16 1444.04 3359.03 1444.04 3358.86 1444.04 3358.71 1444.09 3358.57 1444.21 3358.47 1444.32 3358.36 1444.51 3358.31 1444.78 3358.31L1447.45 3358.31 1447.45 3340.58 1444.78 3340.58C1444.51 3340.58 1444.32 3340.52 1444.21 3340.42 1444.09 3340.31 1444.04 3340.18 1444.04 3340.02 1444.04 3339.86 1444.09 3339.72 1444.21 3339.62 1444.32 3339.51 1444.51 3339.46 1444.78 3339.46ZM1431.77 3339.06C1433.15 3339.06 1434.33 3339.54 1435.33 3340.5 1436.32 3341.46 1436.82 3342.54 1436.82 3343.75 1436.82 3344.26 1436.73 3344.73 1436.57 3345.16 1436.4 3345.59 1436.12 3346.05 1435.72 3346.56 1435.32 3347.06 1434.6 3347.82 1433.56 3348.84 1430.96 3351.41 1428.84 3353.4 1427.21 3354.82L1427.21 3354.9 1435.71 3354.9 1435.71 3354.46C1435.71 3354.2 1435.76 3354.01 1435.87 3353.89 1435.97 3353.78 1436.11 3353.72 1436.28 3353.72 1436.43 3353.72 1436.57 3353.78 1436.67 3353.89 1436.78 3354.01 1436.83 3354.2 1436.83 3354.46L1436.83 3356 1426.13 3356 1426.13 3354.37C1428.38 3352.35 1430.56 3350.29 1432.69 3348.2 1433.68 3347.22 1434.37 3346.51 1434.73 3346.05 1435.1 3345.59 1435.36 3345.19 1435.49 3344.84 1435.63 3344.5 1435.7 3344.15 1435.7 3343.79 1435.7 3342.85 1435.31 3342.01 1434.55 3341.28 1433.79 3340.55 1432.86 3340.18 1431.78 3340.18 1430.81 3340.18 1429.96 3340.46 1429.21 3341.01 1428.46 3341.57 1427.98 3342.25 1427.76 3343.07 1427.71 3343.28 1427.64 3343.42 1427.56 3343.48 1427.46 3343.57 1427.33 3343.61 1427.19 3343.61 1427.04 3343.61 1426.92 3343.56 1426.82 3343.46 1426.72 3343.36 1426.67 3343.24 1426.67 3343.1 1426.67 3342.67 1426.9 3342.1 1427.36 3341.38 1427.82 3340.66 1428.46 3340.09 1429.27 3339.68 1430.08 3339.27 1430.92 3339.06 1431.77 3339.06Z" stroke="#000000" stroke-width="2" stroke-linejoin="round" stroke-miterlimit="10" fill-rule="evenodd"/><text fill="#000000" fill-opacity="0" font-family="Arial,Arial_MSFontService,sans-serif" font-size="20.3555" x="1426.13" y="3356.87">2]</text><rect x="1112" y="3400" width="400" height="104" stroke="#000000" stroke-width="2" stroke-miterlimit="8" fill="#FFFFFF"/><path d="M1311.74 3424.83 1312.22 3424.83C1312.71 3424.83 1313.13 3425 1313.48 3425.35 1313.83 3425.69 1314.01 3426.11 1314.01 3426.61 1314.01 3427.12 1313.83 3427.54 1313.48 3427.88 1313.12 3428.23 1312.7 3428.4 1312.22 3428.4L1311.74 3428.4C1311.25 3428.4 1310.83 3428.22 1310.48 3427.88 1310.12 3427.53 1309.95 3427.11 1309.95 3426.62 1309.95 3426.11 1310.13 3425.68 1310.48 3425.34 1310.84 3425 1311.26 3424.83 1311.74 3424.83Z" stroke="#000000" stroke-width="2" stroke-linejoin="round" stroke-miterlimit="10" fill-rule="evenodd"/><text fill="#000000" fill-opacity="0" font-family="Arial,Arial_MSFontService,sans-serif" font-size="3.57275" x="1309.95" y="3427.95">.</text><path d="M1311.74 3456.83 1312.22 3456.83C1312.71 3456.83 1313.13 3457 1313.48 3457.35 1313.83 3457.69 1314.01 3458.11 1314.01 3458.61 1314.01 3459.12 1313.83 3459.54 1313.48 3459.88 1313.12 3460.23 1312.7 3460.4 1312.22 3460.4L1311.74 3460.4C1311.25 3460.4 1310.83 3460.22 1310.48 3459.88 1310.12 3459.53 1309.95 3459.11 1309.95 3458.62 1309.95 3458.11 1310.13 3457.68 1310.48 3457.34 1310.84 3457 1311.26 3456.83 1311.74 3456.83Z" stroke="#000000" stroke-width="2" stroke-linejoin="round" stroke-miterlimit="10" fill-rule="evenodd"/><text fill="#000000" fill-opacity="0" font-family="Arial,Arial_MSFontService,sans-serif" font-size="3.57275" x="1309.95" y="3459.95">.</text><path d="M1311.74 3488.83 1312.22 3488.83C1312.71 3488.83 1313.13 3489 1313.48 3489.35 1313.83 3489.69 1314.01 3490.11 1314.01 3490.61 1314.01 3491.12 1313.83 3491.54 1313.48 3491.88 1313.12 3492.23 1312.7 3492.4 1312.22 3492.4L1311.74 3492.4C1311.25 3492.4 1310.83 3492.22 1310.48 3491.88 1310.12 3491.53 1309.95 3491.11 1309.95 3490.62 1309.95 3490.11 1310.13 3489.68 1310.48 3489.34 1310.84 3489 1311.26 3488.83 1311.74 3488.83Z" stroke="#000000" stroke-width="2" stroke-linejoin="round" stroke-miterlimit="10" fill-rule="evenodd"/><text fill="#000000" fill-opacity="0" font-family="Arial,Arial_MSFontService,sans-serif" font-size="3.57275" x="1309.95" y="3491.95">.</text><rect x="1112" y="3504" width="400" height="104" stroke="#000000" stroke-width="2" stroke-miterlimit="8" fill="#FFFFFF"/><path d="M1303.16 3553.31C1301.92 3553.31 1300.86 3553.76 1299.97 3554.66 1299.08 3555.56 1298.64 3556.66 1298.64 3557.95 1298.64 3559.25 1299.08 3560.35 1299.97 3561.25 1300.86 3562.16 1301.92 3562.61 1303.16 3562.61 1304.4 3562.61 1305.47 3562.16 1306.36 3561.25 1307.25 3560.35 1307.7 3559.25 1307.7 3557.95 1307.7 3556.65 1307.25 3555.55 1306.36 3554.66 1305.47 3553.76 1304.4 3553.31 1303.16 3553.31ZM1303.11 3552.19C1304.98 3552.19 1306.51 3553 1307.7 3554.62L1307.7 3552.59 1310.29 3552.59C1310.56 3552.59 1310.75 3552.64 1310.86 3552.74 1310.97 3552.85 1311.03 3552.99 1311.03 3553.15 1311.03 3553.31 1310.97 3553.44 1310.86 3553.55 1310.75 3553.65 1310.56 3553.71 1310.29 3553.71L1308.8 3553.71 1308.8 3564.77C1308.8 3565.51 1308.65 3566.17 1308.33 3566.75 1308.12 3567.13 1307.77 3567.53 1307.27 3567.95 1306.78 3568.36 1306.33 3568.65 1305.93 3568.83 1305.53 3569 1304.99 3569.09 1304.31 3569.09L1301.17 3569.09C1300.91 3569.09 1300.72 3569.04 1300.6 3568.94 1300.49 3568.84 1300.43 3568.71 1300.43 3568.54 1300.43 3568.37 1300.49 3568.24 1300.6 3568.13 1300.72 3568.02 1300.91 3567.97 1301.17 3567.97L1304.35 3567.98C1305 3567.98 1305.59 3567.82 1306.11 3567.48 1306.63 3567.15 1307.06 3566.66 1307.41 3566.02 1307.6 3565.65 1307.7 3565.18 1307.7 3564.61L1307.7 3561.29C1306.51 3562.91 1304.98 3563.73 1303.11 3563.73 1301.59 3563.73 1300.28 3563.16 1299.17 3562.03 1298.07 3560.9 1297.52 3559.54 1297.52 3557.95 1297.52 3556.36 1298.07 3555 1299.17 3553.88 1300.28 3552.75 1301.59 3552.19 1303.11 3552.19ZM1287.9 3552.19C1289.43 3552.19 1290.67 3552.56 1291.63 3553.31 1291.63 3553.06 1291.68 3552.87 1291.79 3552.76 1291.89 3552.64 1292.03 3552.59 1292.18 3552.59 1292.35 3552.59 1292.49 3552.64 1292.59 3552.76 1292.7 3552.87 1292.75 3553.07 1292.75 3553.34L1292.75 3555.24C1292.75 3555.5 1292.7 3555.69 1292.59 3555.8 1292.49 3555.92 1292.35 3555.97 1292.18 3555.97 1292.04 3555.97 1291.91 3555.93 1291.81 3555.83 1291.71 3555.73 1291.65 3555.57 1291.63 3555.35 1291.58 3554.83 1291.31 3554.39 1290.81 3554.05 1290.09 3553.56 1289.14 3553.31 1287.95 3553.31 1286.71 3553.31 1285.75 3553.56 1285.07 3554.06 1284.55 3554.44 1284.29 3554.86 1284.29 3555.33 1284.29 3555.86 1284.6 3556.3 1285.21 3556.65 1285.63 3556.89 1286.43 3557.08 1287.61 3557.21 1289.15 3557.38 1290.22 3557.57 1290.81 3557.78 1291.67 3558.09 1292.3 3558.51 1292.72 3559.06 1293.14 3559.6 1293.34 3560.19 1293.34 3560.83 1293.34 3561.77 1292.89 3562.6 1291.99 3563.34 1291.08 3564.07 1289.75 3564.44 1288.01 3564.44 1286.26 3564.44 1284.82 3563.99 1283.71 3563.11 1283.71 3563.41 1283.69 3563.6 1283.65 3563.69 1283.62 3563.77 1283.56 3563.85 1283.46 3563.91 1283.37 3563.97 1283.27 3564 1283.15 3564 1283 3564 1282.86 3563.95 1282.76 3563.83 1282.65 3563.72 1282.6 3563.53 1282.6 3563.27L1282.6 3560.98C1282.6 3560.72 1282.65 3560.53 1282.75 3560.42 1282.85 3560.3 1282.99 3560.25 1283.15 3560.25 1283.31 3560.25 1283.45 3560.3 1283.56 3560.41 1283.67 3560.52 1283.72 3560.67 1283.72 3560.85 1283.72 3561.26 1283.82 3561.6 1284.02 3561.87 1284.33 3562.29 1284.82 3562.64 1285.49 3562.92 1286.17 3563.19 1286.99 3563.33 1287.97 3563.33 1289.41 3563.33 1290.48 3563.06 1291.18 3562.53 1291.89 3561.99 1292.24 3561.42 1292.24 3560.83 1292.24 3560.14 1291.88 3559.59 1291.17 3559.18 1290.45 3558.77 1289.4 3558.49 1288.03 3558.35 1286.65 3558.21 1285.66 3558.02 1285.07 3557.79 1284.47 3557.57 1284 3557.22 1283.67 3556.77 1283.33 3556.31 1283.17 3555.82 1283.17 3555.29 1283.17 3554.34 1283.63 3553.59 1284.56 3553.03 1285.5 3552.47 1286.61 3552.19 1287.9 3552.19ZM1269.76 3552.19C1270.34 3552.19 1270.84 3552.34 1271.27 3552.65 1271.7 3552.95 1272.06 3553.41 1272.35 3554.02 1272.84 3553.41 1273.34 3552.95 1273.84 3552.65 1274.35 3552.34 1274.86 3552.19 1275.37 3552.19 1276.17 3552.19 1276.8 3552.45 1277.28 3552.97 1277.9 3553.64 1278.21 3554.37 1278.21 3555.16L1278.21 3562.9 1279.15 3562.9C1279.41 3562.9 1279.6 3562.95 1279.72 3563.05 1279.83 3563.15 1279.89 3563.28 1279.89 3563.45 1279.89 3563.61 1279.83 3563.74 1279.72 3563.85 1279.6 3563.95 1279.41 3564 1279.15 3564L1277.11 3564 1277.11 3555.26C1277.11 3554.7 1276.94 3554.23 1276.59 3553.87 1276.25 3553.5 1275.85 3553.31 1275.41 3553.31 1275 3553.31 1274.58 3553.46 1274.13 3553.77 1273.68 3554.07 1273.17 3554.67 1272.6 3555.55L1272.6 3562.9 1273.52 3562.9C1273.79 3562.9 1273.97 3562.95 1274.09 3563.05 1274.2 3563.15 1274.26 3563.28 1274.26 3563.45 1274.26 3563.61 1274.2 3563.74 1274.09 3563.85 1273.97 3563.95 1273.79 3564 1273.52 3564L1271.48 3564 1271.48 3555.34C1271.48 3554.75 1271.3 3554.27 1270.96 3553.89 1270.61 3553.5 1270.22 3553.31 1269.79 3553.31 1269.39 3553.31 1269 3553.44 1268.62 3553.69 1268.08 3554.05 1267.52 3554.67 1266.93 3555.55L1266.93 3562.9 1267.87 3562.9C1268.13 3562.9 1268.32 3562.95 1268.43 3563.05 1268.55 3563.15 1268.6 3563.28 1268.6 3563.45 1268.6 3563.61 1268.55 3563.74 1268.43 3563.85 1268.32 3563.95 1268.13 3564 1267.87 3564L1264.89 3564C1264.62 3564 1264.43 3563.95 1264.32 3563.85 1264.2 3563.74 1264.15 3563.61 1264.15 3563.45 1264.15 3563.28 1264.2 3563.15 1264.32 3563.05 1264.43 3562.95 1264.62 3562.9 1264.89 3562.9L1265.82 3562.9 1265.82 3553.71 1264.89 3553.71C1264.62 3553.71 1264.43 3553.65 1264.32 3553.55 1264.2 3553.44 1264.15 3553.31 1264.15 3553.14 1264.15 3552.98 1264.2 3552.85 1264.32 3552.74 1264.43 3552.64 1264.62 3552.59 1264.89 3552.59L1266.93 3552.59 1266.93 3553.71C1267.87 3552.7 1268.81 3552.19 1269.76 3552.19ZM1348.78 3547.46 1352.57 3547.46 1352.57 3567.42 1348.78 3567.42C1348.51 3567.42 1348.32 3567.37 1348.21 3567.27 1348.09 3567.17 1348.04 3567.03 1348.04 3566.86 1348.04 3566.71 1348.09 3566.57 1348.21 3566.47 1348.32 3566.36 1348.51 3566.31 1348.78 3566.31L1351.45 3566.31 1351.45 3548.58 1348.78 3548.58C1348.51 3548.58 1348.32 3548.53 1348.21 3548.42 1348.09 3548.31 1348.04 3548.18 1348.04 3548.02 1348.04 3547.86 1348.09 3547.72 1348.21 3547.62 1348.32 3547.51 1348.51 3547.46 1348.78 3547.46ZM1319.43 3547.46 1323.22 3547.46C1323.49 3547.46 1323.67 3547.51 1323.79 3547.62 1323.9 3547.72 1323.96 3547.86 1323.96 3548.02 1323.96 3548.18 1323.9 3548.31 1323.79 3548.42 1323.67 3548.53 1323.49 3548.58 1323.22 3548.58L1320.53 3548.58 1320.53 3566.31 1323.22 3566.31C1323.49 3566.31 1323.67 3566.36 1323.79 3566.46 1323.9 3566.56 1323.96 3566.7 1323.96 3566.86 1323.96 3567.03 1323.9 3567.17 1323.79 3567.27 1323.67 3567.37 1323.49 3567.42 1323.22 3567.42L1319.43 3567.42ZM1336.52 3547.23 1336.52 3562.9 1340.32 3562.9C1340.58 3562.9 1340.77 3562.95 1340.88 3563.05 1341 3563.15 1341.05 3563.28 1341.05 3563.45 1341.05 3563.61 1341 3563.74 1340.88 3563.85 1340.77 3563.95 1340.58 3564 1340.32 3564L1331.62 3564C1331.35 3564 1331.16 3563.95 1331.05 3563.85 1330.93 3563.74 1330.88 3563.61 1330.88 3563.45 1330.88 3563.28 1330.93 3563.15 1331.05 3563.05 1331.16 3562.95 1331.35 3562.9 1331.62 3562.9L1335.41 3562.9 1335.41 3548.76 1331.8 3549.9C1331.62 3549.95 1331.5 3549.98 1331.42 3549.98 1331.29 3549.98 1331.16 3549.92 1331.05 3549.81 1330.94 3549.7 1330.89 3549.57 1330.89 3549.42 1330.89 3549.29 1330.93 3549.17 1331.02 3549.05 1331.09 3548.98 1331.24 3548.91 1331.46 3548.83Z" stroke="#000000" stroke-width="2" stroke-linejoin="round" stroke-miterlimit="10" fill-rule="evenodd"/><text fill="#000000" fill-opacity="0" font-family="Arial,Arial_MSFontService,sans-serif" font-size="21.8584" x="1264.15" y="3566.36">msg[1]</text><rect x="1112" y="3608" width="400" height="104" stroke="#000000" stroke-width="2" stroke-miterlimit="8" fill="#FFFFFF"/><path d="M1303.16 3657.31C1301.92 3657.31 1300.86 3657.76 1299.97 3658.66 1299.08 3659.56 1298.64 3660.66 1298.64 3661.95 1298.64 3663.25 1299.08 3664.35 1299.97 3665.26 1300.86 3666.16 1301.92 3666.61 1303.16 3666.61 1304.4 3666.61 1305.47 3666.16 1306.36 3665.26 1307.25 3664.35 1307.7 3663.25 1307.7 3661.95 1307.7 3660.65 1307.25 3659.55 1306.36 3658.66 1305.47 3657.76 1304.4 3657.31 1303.16 3657.31ZM1303.11 3656.19C1304.98 3656.19 1306.51 3657 1307.7 3658.62L1307.7 3656.59 1310.29 3656.59C1310.56 3656.59 1310.75 3656.64 1310.86 3656.75 1310.97 3656.85 1311.03 3656.99 1311.03 3657.15 1311.03 3657.31 1310.97 3657.44 1310.86 3657.55 1310.75 3657.66 1310.56 3657.71 1310.29 3657.71L1308.8 3657.71 1308.8 3668.77C1308.8 3669.51 1308.65 3670.17 1308.33 3670.75 1308.12 3671.13 1307.77 3671.53 1307.27 3671.95 1306.78 3672.36 1306.33 3672.65 1305.93 3672.83 1305.53 3673.01 1304.99 3673.09 1304.31 3673.09L1301.17 3673.09C1300.91 3673.09 1300.72 3673.04 1300.6 3672.94 1300.49 3672.84 1300.43 3672.71 1300.43 3672.54 1300.43 3672.37 1300.49 3672.24 1300.6 3672.13 1300.72 3672.03 1300.91 3671.97 1301.17 3671.97L1304.35 3671.99C1305 3671.99 1305.59 3671.82 1306.11 3671.48 1306.63 3671.15 1307.06 3670.66 1307.41 3670.02 1307.6 3669.65 1307.7 3669.18 1307.7 3668.61L1307.7 3665.29C1306.51 3666.91 1304.98 3667.73 1303.11 3667.73 1301.59 3667.73 1300.28 3667.16 1299.17 3666.03 1298.07 3664.9 1297.52 3663.54 1297.52 3661.95 1297.52 3660.36 1298.07 3659 1299.17 3657.88 1300.28 3656.75 1301.59 3656.19 1303.11 3656.19ZM1287.9 3656.19C1289.43 3656.19 1290.67 3656.57 1291.63 3657.31 1291.63 3657.06 1291.68 3656.87 1291.79 3656.76 1291.89 3656.64 1292.03 3656.59 1292.18 3656.59 1292.35 3656.59 1292.49 3656.64 1292.59 3656.76 1292.7 3656.87 1292.75 3657.07 1292.75 3657.34L1292.75 3659.24C1292.75 3659.5 1292.7 3659.69 1292.59 3659.8 1292.49 3659.92 1292.35 3659.98 1292.18 3659.98 1292.04 3659.98 1291.91 3659.93 1291.81 3659.83 1291.71 3659.73 1291.65 3659.58 1291.63 3659.36 1291.58 3658.83 1291.31 3658.39 1290.81 3658.05 1290.09 3657.56 1289.14 3657.31 1287.95 3657.31 1286.71 3657.31 1285.75 3657.56 1285.07 3658.06 1284.55 3658.44 1284.29 3658.86 1284.29 3659.33 1284.29 3659.86 1284.6 3660.3 1285.21 3660.65 1285.63 3660.89 1286.43 3661.08 1287.61 3661.21 1289.15 3661.38 1290.22 3661.57 1290.81 3661.78 1291.67 3662.09 1292.3 3662.52 1292.72 3663.06 1293.14 3663.61 1293.34 3664.19 1293.34 3664.83 1293.34 3665.77 1292.89 3666.6 1291.99 3667.34 1291.08 3668.07 1289.75 3668.44 1288.01 3668.44 1286.26 3668.44 1284.82 3668 1283.71 3667.11 1283.71 3667.41 1283.69 3667.6 1283.65 3667.69 1283.62 3667.78 1283.56 3667.85 1283.46 3667.91 1283.37 3667.97 1283.27 3668 1283.15 3668 1283 3668 1282.86 3667.95 1282.76 3667.83 1282.65 3667.72 1282.6 3667.53 1282.6 3667.27L1282.6 3664.99C1282.6 3664.72 1282.65 3664.53 1282.75 3664.42 1282.85 3664.3 1282.99 3664.25 1283.15 3664.25 1283.31 3664.25 1283.45 3664.3 1283.56 3664.41 1283.67 3664.52 1283.72 3664.67 1283.72 3664.85 1283.72 3665.26 1283.82 3665.6 1284.02 3665.87 1284.33 3666.29 1284.82 3666.64 1285.49 3666.92 1286.17 3667.19 1286.99 3667.33 1287.97 3667.33 1289.41 3667.33 1290.48 3667.06 1291.18 3666.53 1291.89 3665.99 1292.24 3665.42 1292.24 3664.83 1292.24 3664.14 1291.88 3663.59 1291.17 3663.18 1290.45 3662.77 1289.4 3662.49 1288.03 3662.35 1286.65 3662.21 1285.66 3662.02 1285.07 3661.79 1284.47 3661.57 1284 3661.22 1283.67 3660.77 1283.33 3660.31 1283.17 3659.82 1283.17 3659.29 1283.17 3658.34 1283.63 3657.59 1284.56 3657.03 1285.5 3656.47 1286.61 3656.19 1287.9 3656.19ZM1269.76 3656.19C1270.34 3656.19 1270.84 3656.34 1271.27 3656.65 1271.7 3656.95 1272.06 3657.41 1272.35 3658.02 1272.84 3657.41 1273.34 3656.95 1273.84 3656.65 1274.35 3656.34 1274.86 3656.19 1275.37 3656.19 1276.17 3656.19 1276.8 3656.45 1277.28 3656.97 1277.9 3657.64 1278.21 3658.37 1278.21 3659.16L1278.21 3666.9 1279.15 3666.9C1279.41 3666.9 1279.6 3666.95 1279.72 3667.05 1279.83 3667.15 1279.89 3667.28 1279.89 3667.45 1279.89 3667.61 1279.83 3667.74 1279.72 3667.85 1279.6 3667.95 1279.41 3668 1279.15 3668L1277.11 3668 1277.11 3659.26C1277.11 3658.7 1276.94 3658.24 1276.59 3657.87 1276.25 3657.5 1275.85 3657.31 1275.41 3657.31 1275 3657.31 1274.58 3657.46 1274.13 3657.77 1273.68 3658.07 1273.17 3658.67 1272.6 3659.55L1272.6 3666.9 1273.52 3666.9C1273.79 3666.9 1273.97 3666.95 1274.09 3667.05 1274.2 3667.15 1274.26 3667.28 1274.26 3667.45 1274.26 3667.61 1274.2 3667.74 1274.09 3667.85 1273.97 3667.95 1273.79 3668 1273.52 3668L1271.48 3668 1271.48 3659.34C1271.48 3658.75 1271.3 3658.27 1270.96 3657.89 1270.61 3657.5 1270.22 3657.31 1269.79 3657.31 1269.39 3657.31 1269 3657.44 1268.62 3657.69 1268.08 3658.05 1267.52 3658.67 1266.93 3659.55L1266.93 3666.9 1267.87 3666.9C1268.13 3666.9 1268.32 3666.95 1268.43 3667.05 1268.55 3667.15 1268.6 3667.28 1268.6 3667.45 1268.6 3667.61 1268.55 3667.74 1268.43 3667.85 1268.32 3667.95 1268.13 3668 1267.87 3668L1264.89 3668C1264.62 3668 1264.43 3667.95 1264.32 3667.85 1264.2 3667.74 1264.15 3667.61 1264.15 3667.45 1264.15 3667.28 1264.2 3667.15 1264.32 3667.05 1264.43 3666.95 1264.62 3666.9 1264.89 3666.9L1265.82 3666.9 1265.82 3657.71 1264.89 3657.71C1264.62 3657.71 1264.43 3657.66 1264.32 3657.55 1264.2 3657.44 1264.15 3657.31 1264.15 3657.14 1264.15 3656.98 1264.2 3656.85 1264.32 3656.75 1264.43 3656.64 1264.62 3656.59 1264.89 3656.59L1266.93 3656.59 1266.93 3657.71C1267.87 3656.7 1268.81 3656.19 1269.76 3656.19ZM1335.97 3652.18C1334.73 3652.18 1333.76 3652.82 1333.05 3654.08 1332.35 3655.35 1332 3656.82 1332 3658.51L1332 3660.95C1332 3662 1332.14 3662.97 1332.44 3663.88 1332.73 3664.78 1333.07 3665.5 1333.45 3666.04 1333.66 3666.34 1333.94 3666.6 1334.29 3666.82 1334.79 3667.13 1335.36 3667.29 1335.99 3667.29 1337.22 3667.29 1338.19 3666.66 1338.89 3665.39 1339.6 3664.12 1339.95 3662.64 1339.95 3660.95L1339.95 3658.51C1339.95 3657.47 1339.8 3656.49 1339.51 3655.59 1339.21 3654.69 1338.88 3653.97 1338.51 3653.44 1338.29 3653.13 1338 3652.86 1337.65 3652.65 1337.15 3652.34 1336.59 3652.18 1335.97 3652.18ZM1348.78 3651.46 1352.57 3651.46 1352.57 3671.42 1348.78 3671.42C1348.51 3671.42 1348.32 3671.37 1348.21 3671.27 1348.09 3671.17 1348.04 3671.03 1348.04 3670.86 1348.04 3670.71 1348.09 3670.57 1348.21 3670.47 1348.32 3670.36 1348.51 3670.31 1348.78 3670.31L1351.45 3670.31 1351.45 3652.58 1348.78 3652.58C1348.51 3652.58 1348.32 3652.53 1348.21 3652.42 1348.09 3652.32 1348.04 3652.18 1348.04 3652.03 1348.04 3651.86 1348.09 3651.72 1348.21 3651.62 1348.32 3651.51 1348.51 3651.46 1348.78 3651.46ZM1319.43 3651.46 1323.22 3651.46C1323.49 3651.46 1323.67 3651.51 1323.79 3651.62 1323.9 3651.72 1323.96 3651.86 1323.96 3652.03 1323.96 3652.18 1323.9 3652.32 1323.79 3652.42 1323.67 3652.53 1323.49 3652.58 1323.22 3652.58L1320.53 3652.58 1320.53 3670.31 1323.22 3670.31C1323.49 3670.31 1323.67 3670.36 1323.79 3670.46 1323.9 3670.56 1323.96 3670.7 1323.96 3670.86 1323.96 3671.03 1323.9 3671.17 1323.79 3671.27 1323.67 3671.37 1323.49 3671.42 1323.22 3671.42L1319.43 3671.42ZM1335.95 3651.06C1336.61 3651.06 1337.23 3651.19 1337.8 3651.45 1338.37 3651.71 1338.86 3652.07 1339.26 3652.54 1339.53 3652.84 1339.81 3653.31 1340.11 3653.95 1340.4 3654.59 1340.62 3655.18 1340.76 3655.7 1340.96 3656.46 1341.05 3657.35 1341.05 3658.37L1341.05 3661.11C1341.05 3663.49 1340.49 3665.38 1339.35 3666.76 1338.47 3667.85 1337.35 3668.4 1335.99 3668.4 1335.34 3668.4 1334.73 3668.27 1334.15 3668.01 1333.58 3667.75 1333.09 3667.39 1332.68 3666.92 1332.43 3666.63 1332.15 3666.17 1331.85 3665.53 1331.54 3664.88 1331.33 3664.3 1331.19 3663.76 1330.99 3663 1330.89 3662.12 1330.89 3661.11L1330.89 3658.37C1330.89 3655.98 1331.46 3654.09 1332.59 3652.7 1333.48 3651.61 1334.6 3651.06 1335.95 3651.06Z" stroke="#000000" stroke-width="2" stroke-linejoin="round" stroke-miterlimit="10" fill-rule="evenodd"/><text fill="#000000" fill-opacity="0" font-family="Arial,Arial_MSFontService,sans-serif" font-size="22.0298" x="1264.15" y="3670.34">msg[0]</text><path d="M9.9005e-07-1 94.042-0.999907 94.042 1.00009-9.9005e-07 1ZM92.7087-3.99991 106.042 0.000104987 92.7086 4.00009Z" transform="matrix(-1 -8.74228e-08 -8.74228e-08 1 1618.04 3088)"/><path d="M9.9005e-07-1 94.042-0.999907 94.042 1.00009-9.9005e-07 1ZM92.7087-3.99991 106.042 0.000104987 92.7086 4.00009Z" transform="matrix(-1 -8.74228e-08 -8.74228e-08 1 1621.04 2984)"/><text fill="#7030A0" font-family="Times New Roman,Times New Roman_MSFontService,sans-serif" font-weight="700" font-size="32" transform="translate(1638.91 2961)">va_start<tspan x="112" y="0">(ap, </tspan>fmt)<tspan x="0" y="38">ap = (</tspan><tspan x="78.6666" y="38">va_list</tspan><tspan x="167.5" y="38">) &amp;</tspan><tspan x="212.833" y="38">fmt</tspan><tspan x="268.833" y="38">+ </tspan><tspan x="295" y="38">sizeof</tspan><tspan x="371.333" y="38">(</tspan><tspan x="382" y="38">fmt</tspan>)<tspan x="-0.00012207" y="135">&amp;</tspan><tspan x="26.6665" y="135">fmt</tspan></text></g></svg>