<svg width="2396" height="728" xmlns="http://www.w3.org/2000/svg" xmlns:xlink="http://www.w3.org/1999/xlink" overflow="hidden"><defs><clipPath id="clip0"><path d="M1011 3222 3407 3222 3407 3950 1011 3950Z" fill-rule="evenodd" clip-rule="evenodd"/></clipPath><linearGradient x1="1712.5" y1="3479.5" x2="1712.5" y2="3741.5" gradientUnits="userSpaceOnUse" spreadMethod="reflect" id="fill1"><stop offset="0" stop-color="#71A6DB"/><stop offset="0.5" stop-color="#559BDB"/><stop offset="1" stop-color="#438AC9"/></linearGradient><linearGradient x1="2189.5" y1="3479.5" x2="2189.5" y2="3741.5" gradientUnits="userSpaceOnUse" spreadMethod="reflect" id="fill2"><stop offset="0" stop-color="#71A6DB"/><stop offset="0.5" stop-color="#559BDB"/><stop offset="1" stop-color="#438AC9"/></linearGradient><linearGradient x1="1236.5" y1="3554.5" x2="1236.5" y2="3741.5" gradientUnits="userSpaceOnUse" spreadMethod="reflect" id="fill3"><stop offset="0" stop-color="#71A6DB"/><stop offset="0.5" stop-color="#559BDB"/><stop offset="1" stop-color="#438AC9"/></linearGradient><linearGradient x1="3018" y1="3479.5" x2="3018" y2="3741.5" gradientUnits="userSpaceOnUse" spreadMethod="reflect" id="fill4"><stop offset="0" stop-color="#71A6DB"/><stop offset="0.5" stop-color="#559BDB"/><stop offset="1" stop-color="#438AC9"/></linearGradient></defs><g clip-path="url(#clip0)" transform="translate(-1011 -3222)"><rect x="1522.5" y="3479.5" width="380" height="262" stroke="#5B9BD5" stroke-width="0.666667" stroke-miterlimit="8" fill="url(#fill1)"/><rect x="1539.5" y="3500.5" width="169" height="67" stroke="#4472C4" stroke-width="3" stroke-miterlimit="8" fill="#FFFFFF"/><text font-family="Calibri,Calibri_MSFontService,sans-serif" font-weight="400" font-size="32" transform="translate(1577.74 3544)">private</text><rect x="1539.5" y="3577.5" width="168" height="68" stroke="#0070C0" stroke-width="3" stroke-miterlimit="8" fill="#FFFFFF"/><text font-family="Calibri,Calibri_MSFontService,sans-serif" font-weight="400" font-size="32" transform="translate(1594.03 3622)">prev</text><rect x="1539.5" y="3654.5" width="168" height="68" stroke="#4472C4" stroke-width="3" stroke-miterlimit="8" fill="#FFFFFF"/><text font-family="Calibri,Calibri_MSFontService,sans-serif" font-weight="400" font-size="32" transform="translate(1592.99 3699)">flags</text><rect x="1717.5" y="3654.5" width="169" height="68" stroke="#4472C4" stroke-width="3" stroke-miterlimit="8" fill="#FFFFFF"/><text font-family="Calibri,Calibri_MSFontService,sans-serif" font-weight="400" font-size="32" transform="translate(1773.08 3699)">func</text><rect x="1717.5" y="3577.5" width="169" height="68" stroke="#0070C0" stroke-width="3" stroke-miterlimit="8" fill="#FFFFFF"/><text font-family="Calibri,Calibri_MSFontService,sans-serif" font-weight="400" font-size="32" transform="translate(1773.1 3622)">next</text><rect x="1999.5" y="3479.5" width="380" height="262" stroke="#5B9BD5" stroke-width="0.666667" stroke-miterlimit="8" fill="url(#fill2)"/><rect x="2015.5" y="3500.5" width="169" height="67" stroke="#4472C4" stroke-width="3" stroke-miterlimit="8" fill="#FFFFFF"/><text font-family="Calibri,Calibri_MSFontService,sans-serif" font-weight="400" font-size="32" transform="translate(2054.54 3544)">private</text><rect x="2015.5" y="3577.5" width="169" height="68" stroke="#0070C0" stroke-width="3" stroke-miterlimit="8" fill="#FFFFFF"/><text font-family="Calibri,Calibri_MSFontService,sans-serif" font-weight="400" font-size="32" transform="translate(2070.83 3622)">prev</text><rect x="2015.5" y="3654.5" width="169" height="68" stroke="#4472C4" stroke-width="3" stroke-miterlimit="8" fill="#FFFFFF"/><text font-family="Calibri,Calibri_MSFontService,sans-serif" font-weight="400" font-size="32" transform="translate(2069.79 3699)">flags</text><rect x="2194.5" y="3654.5" width="169" height="68" stroke="#4472C4" stroke-width="3" stroke-miterlimit="8" fill="#FFFFFF"/><text font-family="Calibri,Calibri_MSFontService,sans-serif" font-weight="400" font-size="32" transform="translate(2249.88 3699)">func</text><rect x="2194.5" y="3577.5" width="169" height="68" stroke="#0070C0" stroke-width="3" stroke-miterlimit="8" fill="#FFFFFF"/><text font-family="Calibri,Calibri_MSFontService,sans-serif" font-weight="400" font-size="32" transform="translate(2249.91 3622)">next</text><rect x="1046.5" y="3554.5" width="380" height="187" stroke="#5B9BD5" stroke-width="0.666667" stroke-miterlimit="8" fill="url(#fill3)"/><rect x="1062.5" y="3577.5" width="169" height="68" stroke="#0070C0" stroke-width="3" stroke-miterlimit="8" fill="#FFFFFF"/><text font-family="Calibri,Calibri_MSFontService,sans-serif" font-weight="400" font-size="32" transform="translate(1117.9 3622)">prev</text><rect x="1241.5" y="3654.5" width="169" height="68" stroke="#4472C4" stroke-width="3" stroke-miterlimit="8" fill="#FFFFFF"/><text font-family="Calibri,Calibri_MSFontService,sans-serif" font-weight="400" font-size="32" transform="translate(1299.37 3699)">lock</text><rect x="1241.5" y="3577.5" width="169" height="68" stroke="#0070C0" stroke-width="3" stroke-miterlimit="8" fill="#FFFFFF"/><text font-family="Calibri,Calibri_MSFontService,sans-serif" font-weight="400" font-size="32" transform="translate(1296.98 3622)">next</text><rect x="2828.5" y="3479.5" width="379" height="262" stroke="#5B9BD5" stroke-width="0.666667" stroke-miterlimit="8" fill="url(#fill4)"/><rect x="2844.5" y="3500.5" width="169" height="67" stroke="#4472C4" stroke-width="3" stroke-miterlimit="8" fill="#FFFFFF"/><text font-family="Calibri,Calibri_MSFontService,sans-serif" font-weight="400" font-size="32" transform="translate(2883.02 3544)">private</text><rect x="2844.5" y="3577.5" width="169" height="68" stroke="#0070C0" stroke-width="3" stroke-miterlimit="8" fill="#FFFFFF"/><text font-family="Calibri,Calibri_MSFontService,sans-serif" font-weight="400" font-size="32" transform="translate(2899.31 3622)">prev</text><rect x="2844.5" y="3654.5" width="169" height="68" stroke="#4472C4" stroke-width="3" stroke-miterlimit="8" fill="#FFFFFF"/><text font-family="Calibri,Calibri_MSFontService,sans-serif" font-weight="400" font-size="32" transform="translate(2898.27 3699)">flags</text><rect x="3022.5" y="3654.5" width="169" height="68" stroke="#4472C4" stroke-width="3" stroke-miterlimit="8" fill="#FFFFFF"/><text font-family="Calibri,Calibri_MSFontService,sans-serif" font-weight="400" font-size="32" transform="translate(3078.36 3699)">func</text><rect x="3022.5" y="3577.5" width="169" height="68" stroke="#0070C0" stroke-width="3" stroke-miterlimit="8" fill="#FFFFFF"/><text font-family="Calibri,Calibri_MSFontService,sans-serif" font-weight="400" font-size="32" transform="translate(3078.39 3622)">next</text><path d="M2712.5 3866C2712.5 3856.89 2719.89 3849.5 2729 3849.5L3024 3849.5C3033.11 3849.5 3040.5 3856.89 3040.5 3866L3040.5 3932C3040.5 3941.11 3033.11 3948.5 3024 3948.5L2729 3948.5C2719.89 3948.5 2712.5 3941.11 2712.5 3932Z" stroke="#FF0000" stroke-width="3" stroke-miterlimit="8" fill="#FFFFFF" fill-rule="evenodd"/><text font-family="Calibri,Calibri_MSFontService,sans-serif" font-weight="700" font-size="32" transform="translate(2730.61 3909)">WQ_FLAG_EXCLUSIVE</text><path d="M1354 3592.17 1522.54 3592.17 1522.54 3595.83 1354 3595.83ZM1354 3599.5C1350.96 3599.5 1348.5 3597.04 1348.5 3594 1348.5 3590.96 1350.96 3588.5 1354 3588.5 1357.04 3588.5 1359.5 3590.96 1359.5 3594 1359.5 3597.04 1357.04 3599.5 1354 3599.5ZM1520.7 3588.5 1539.04 3594 1520.7 3599.5Z"/><path d="M1830 3592.17 1998.54 3592.17 1998.54 3595.83 1830 3595.83ZM1830 3599.5C1826.96 3599.5 1824.5 3597.04 1824.5 3594 1824.5 3590.96 1826.96 3588.5 1830 3588.5 1833.04 3588.5 1835.5 3590.96 1835.5 3594 1835.5 3597.04 1833.04 3599.5 1830 3599.5ZM1996.7 3588.5 2015.04 3594 1996.7 3599.5Z"/><path d="M2307 3592.17 2475.54 3592.17 2475.54 3595.83 2307 3595.83ZM2307 3599.5C2303.96 3599.5 2301.5 3597.04 2301.5 3594 2301.5 3590.96 2303.96 3588.5 2307 3588.5 2310.04 3588.5 2312.5 3590.96 2312.5 3594 2312.5 3597.04 2310.04 3599.5 2307 3599.5ZM2473.7 3588.5 2492.04 3594 2473.7 3599.5Z"/><path d="M1.04347e-06-1.83333 167.958-1.83324 167.958 1.83343-1.04347e-06 1.83333ZM-3.13041e-06 5.5C-3.03757 5.5-5.5 3.03756-5.5-3.13041e-06-5.5-3.03757-3.03756-5.5 3.13041e-06-5.5 3.03757-5.5 5.5-3.03756 5.5 3.13041e-06 5.5 3.03757 3.03756 5.5-3.13041e-06 5.5ZM166.124-5.49991 184.458 0.000104987 166.124 5.50009Z" transform="matrix(-1 -8.74228e-08 -8.74228e-08 1 2070.46 3628)"/><path d="M1.04347e-06-1.83333 167.958-1.83324 167.958 1.83343-1.04347e-06 1.83333ZM-3.13041e-06 5.5C-3.03757 5.5-5.5 3.03756-5.5-3.13041e-06-5.5-3.03757-3.03756-5.5 3.13041e-06-5.5 3.03757-5.5 5.5-3.03756 5.5 3.13041e-06 5.5 3.03757 3.03756 5.5-3.13041e-06 5.5ZM166.124-5.49991 184.458 0.000104987 166.124 5.50009Z" transform="matrix(-1 -8.74228e-08 -8.74228e-08 1 1593.46 3628)"/><path d="M1.04347e-06-1.83333 167.958-1.83324 167.958 1.83343-1.04347e-06 1.83333ZM-3.13041e-06 5.5C-3.03757 5.5-5.5 3.03756-5.5-3.13041e-06-5.5-3.03757-3.03756-5.5 3.13041e-06-5.5 3.03757-5.5 5.5-3.03756 5.5 3.13041e-06 5.5 3.03757 3.03756 5.5-3.13041e-06 5.5ZM166.124-5.49991 184.458 0.000104987 166.124 5.50009Z" transform="matrix(-1 -8.74228e-08 -8.74228e-08 1 2897.46 3628)"/><path d="M2639 3592.17 2653.67 3592.17 2653.67 3595.83 2639 3595.83ZM2664.67 3592.17 2668.33 3592.17 2668.33 3595.83 2664.67 3595.83ZM2679.33 3592.17 2694 3592.17 2694 3595.83 2679.33 3595.83ZM2705 3592.17 2708.67 3592.17 2708.67 3595.83 2705 3595.83ZM2719.67 3592.17 2734.33 3592.17 2734.33 3595.83 2719.67 3595.83ZM2745.33 3592.17 2749 3592.17 2749 3595.83 2745.33 3595.83ZM2760 3592.17 2774.67 3592.17 2774.67 3595.83 2760 3595.83ZM2785.67 3592.17 2789.33 3592.17 2789.33 3595.83 2785.67 3595.83ZM2800.33 3592.17 2815 3592.17 2815 3595.83 2800.33 3595.83ZM2826 3592.17 2827.67 3592.17 2827.67 3595.83 2826 3595.83ZM2825.84 3588.5 2844.17 3594 2825.84 3599.5Z"/><path d="M2379.5 3626.17 2394.17 3626.17 2394.17 3629.83 2379.5 3629.83ZM2405.17 3626.17 2408.83 3626.17 2408.83 3629.83 2405.17 3629.83ZM2419.83 3626.17 2434.5 3626.17 2434.5 3629.83 2419.83 3629.83ZM2445.5 3626.17 2449.17 3626.17 2449.17 3629.83 2445.5 3629.83ZM2460.17 3626.17 2474.83 3626.17 2474.83 3629.83 2460.17 3629.83ZM2485.83 3626.17 2489.5 3626.17 2489.5 3629.83 2485.83 3629.83ZM2500.5 3626.17 2515.17 3626.17 2515.17 3629.83 2500.5 3629.83ZM2526.17 3626.17 2529.83 3626.17 2529.83 3629.83 2526.17 3629.83ZM2540.83 3626.17 2555.5 3626.17 2555.5 3629.83 2540.83 3629.83ZM2566.5 3626.17 2568.17 3626.17 2568.17 3629.83 2566.5 3629.83ZM2381.33 3633.5 2363 3628 2381.33 3622.5Z"/><path d="M2877.83 3705 2877.83 3838.53 2874.17 3838.53 2874.17 3705ZM2876 3838.53 2881.5 3831.19 2876 3849.53 2870.5 3831.19Z" fill="#FF0000"/><path d="M1501.5 3237.83C1501.5 3230.47 1507.47 3224.5 1514.83 3224.5L1734.17 3224.5C1741.53 3224.5 1747.5 3230.47 1747.5 3237.83L1747.5 3291.17C1747.5 3298.53 1741.53 3304.5 1734.17 3304.5L1514.83 3304.5C1507.47 3304.5 1501.5 3298.53 1501.5 3291.17Z" stroke="#FF0000" stroke-width="3" stroke-miterlimit="8" fill="#FFFFFF" fill-rule="evenodd"/><text font-family="Calibri,Calibri_MSFontService,sans-serif" font-weight="700" font-size="32" transform="translate(1550.08 3275)">t<tspan x="10.8534" y="0">ask_struct</tspan></text><path d="M1617.83 3311.33 1617.83 3517.36 1614.17 3517.36 1614.17 3311.33ZM1616 3311.33 1610.5 3315 1616 3304 1621.5 3315Z" fill="#FF0000"/><path d="M1976.5 3237.83C1976.5 3230.47 1982.47 3224.5 1989.83 3224.5L2209.17 3224.5C2216.53 3224.5 2222.5 3230.47 2222.5 3237.83L2222.5 3291.17C2222.5 3298.53 2216.53 3304.5 2209.17 3304.5L1989.83 3304.5C1982.47 3304.5 1976.5 3298.53 1976.5 3291.17Z" stroke="#FF0000" stroke-width="3" stroke-miterlimit="8" fill="#FFFFFF" fill-rule="evenodd"/><text font-family="Calibri,Calibri_MSFontService,sans-serif" font-weight="700" font-size="32" transform="translate(2024.85 3275)">t<tspan x="10.8533" y="0">ask_struct</tspan></text><path d="M2091.83 3311.33 2091.83 3517.36 2088.17 3517.36 2088.17 3311.33ZM2090 3311.33 2084.5 3315 2090 3304 2095.5 3315Z" fill="#FF0000"/><path d="M2813.5 3237.83C2813.5 3230.47 2819.47 3224.5 2826.83 3224.5L3046.17 3224.5C3053.53 3224.5 3059.5 3230.47 3059.5 3237.83L3059.5 3291.17C3059.5 3298.53 3053.53 3304.5 3046.17 3304.5L2826.83 3304.5C2819.47 3304.5 2813.5 3298.53 2813.5 3291.17Z" stroke="#FF0000" stroke-width="3" stroke-miterlimit="8" fill="#FFFFFF" fill-rule="evenodd"/><text font-family="Calibri,Calibri_MSFontService,sans-serif" font-weight="700" font-size="32" transform="translate(2862.07 3275)">t<tspan x="10.8533" y="0">ask_struct</tspan></text><path d="M2929.83 3311.33 2929.83 3517.36 2926.17 3517.36 2926.17 3311.33ZM2928 3311.33 2922.5 3315 2928 3304 2933.5 3315Z" fill="#FF0000"/><path d="M1626.83 3711 1626.83 3833.7 1623.17 3833.7 1623.17 3711ZM1625 3833.7 1630.5 3826.36 1625 3844.7 1619.5 3826.36Z" fill="#FF0000"/><path d="M1537.5 3863.17C1537.5 3854.51 1544.51 3847.5 1553.17 3847.5L1706.83 3847.5C1715.49 3847.5 1722.5 3854.51 1722.5 3863.17L1722.5 3925.83C1722.5 3934.49 1715.49 3941.5 1706.83 3941.5L1553.17 3941.5C1544.51 3941.5 1537.5 3934.49 1537.5 3925.83Z" stroke="#FF0000" stroke-width="3" stroke-miterlimit="8" fill="#FFFFFF" fill-rule="evenodd"/><text font-family="Calibri,Calibri_MSFontService,sans-serif" font-weight="700" font-size="32" transform="translate(1621.42 3905)">0</text><path d="M0-1.83333 2258.43-1.83333 2258.43 241.805 2156.41 241.805 2156.41 238.138 2256.6 238.138 2254.76 239.972 2254.76 0 2256.6 1.83333 0 1.83333ZM2156.41 245.472C2153.37 245.472 2150.91 243.009 2150.91 239.972 2150.91 236.934 2153.37 234.472 2156.41 234.472 2159.45 234.472 2161.91 236.934 2161.91 239.972 2161.91 243.009 2159.45 245.472 2156.41 245.472Z" transform="matrix(-1 -8.74228e-08 -8.74228e-08 1 3270.41 3390)"/><path d="M3275.59 3390 3275.59 3631.82 3207.5 3631.82 3207.5 3628.15 3273.76 3628.15 3271.93 3629.99 3271.93 3390ZM3209.33 3635.49 3191 3629.97 3209.34 3624.49Z"/><path d="M1342 3426.17 3247.49 3426.17 3247.49 3596.23 3131.29 3596.23 3131.29 3592.56 3245.66 3592.56 3243.82 3594.4 3243.82 3428 3245.66 3429.83 1342 3429.83ZM3131.29 3599.9C3128.25 3599.9 3125.79 3597.43 3125.79 3594.4 3125.79 3591.36 3128.25 3588.9 3131.29 3588.9 3134.32 3588.9 3136.79 3591.36 3136.79 3594.4 3136.79 3597.43 3134.32 3599.9 3131.29 3599.9Z"/><path d="M1344.83 3428 1344.83 3560.88 1341.17 3560.88 1341.17 3428ZM1348.5 3559.05 1343 3577.38 1337.5 3559.05Z"/><path d="M3077.5 3866C3077.5 3856.89 3084.89 3849.5 3094 3849.5L3389 3849.5C3398.11 3849.5 3405.5 3856.89 3405.5 3866L3405.5 3932C3405.5 3941.11 3398.11 3948.5 3389 3948.5L3094 3948.5C3084.89 3948.5 3077.5 3941.11 3077.5 3932Z" stroke="#FF0000" stroke-width="3" stroke-miterlimit="8" fill="#FFFFFF" fill-rule="evenodd"/><text font-family="Calibri,Calibri_MSFontService,sans-serif" font-weight="700" font-size="32" transform="translate(3102.26 3909)">xxx_wake_function<tspan x="257.113" y="0">()</tspan></text><path d="M1752.5 3864C1752.5 3854.89 1759.89 3847.5 1769 3847.5L2064 3847.5C2073.11 3847.5 2080.5 3854.89 2080.5 3864L2080.5 3930C2080.5 3939.11 2073.11 3946.5 2064 3946.5L1769 3946.5C1759.89 3946.5 1752.5 3939.11 1752.5 3930Z" stroke="#FF0000" stroke-width="3" stroke-miterlimit="8" fill="#FFFFFF" fill-rule="evenodd"/><text font-family="Calibri,Calibri_MSFontService,sans-serif" font-weight="700" font-size="32" transform="translate(1777.26 3907)">xxx_wake_function<tspan x="257.113" y="0">()</tspan></text><path d="M0-1.5 87.0608-1.5 87.0608 115.719 85.5608 114.219 134.121 114.219 134.121 117.219 84.0608 117.219 84.0608 0 85.5608 1.5 0 1.5ZM134.121 115.719 128.121 111.219 143.121 115.719 128.121 120.219Z" fill="#FF0000" transform="matrix(-4.37114e-08 1 1 4.37114e-08 1800.5 3704.5)"/><path d="M0-1.5 72.3405-1.5 72.3405 128.754 70.8405 127.254 132.681 127.254 132.681 130.254 69.3405 130.254 69.3405 0 70.8405 1.5 0 1.5ZM132.681 128.754 126.681 124.254 141.681 128.754 126.681 133.254Z" fill="#FF0000" transform="matrix(-4.37114e-08 1 1 4.37114e-08 3112.5 3707.5)"/><text font-family="Courier New,Courier New_MSFontService,sans-serif" font-weight="700" font-size="32" transform="translate(1059.09 3784)">wait_queue_head_t<tspan x="951.842" y="0">wait_queue_entry_t</tspan></text></g></svg>